<svg xmlns="http://www.w3.org/2000/svg" xmlns:xlink="http://www.w3.org/1999/xlink" viewBox="0 0 64.04 56.57"><defs><style>.cls-1{fill:url(#Degradado_sin_nombre_12);}</style><linearGradient id="Degradado_sin_nombre_12" x1="10.02" y1="50.23" x2="53.96" y2="6.29" gradientUnits="userSpaceOnUse"><stop offset="0" stop-color="#009640"/><stop offset="0.99" stop-color="#312783"/></linearGradient></defs><g id="Capa_2" data-name="Capa 2"><g id="Capa_1-2" data-name="Capa 1"><path class="cls-1" d="M47.37,4.79,28.64,22.31V0H46a4.15,4.15,0,0,1,3.59,2.07l.58,1A4.74,4.74,0,0,0,47.37,4.79ZM63.49,26.21,54.9,11.34,37.82,26.47,54.33,46.22l9.16-15.86A4.16,4.16,0,0,0,63.49,26.21ZM28.64,54.36a5.17,5.17,0,0,1-.52,2.21H46a4.14,4.14,0,0,0,2.45-.84L28.64,32.21ZM17.92,0a4.16,4.16,0,0,0-3.43,2.05L.56,26.21a4.11,4.11,0,0,0,0,4.15L14.49,54.5a4.15,4.15,0,0,0,3.59,2.07h.35a5.16,5.16,0,0,1-.51-2.21Z"/></g></g></svg>