<svg xmlns="http://www.w3.org/2000/svg" xmlns:xlink="http://www.w3.org/1999/xlink" viewBox="0 0 559.22 387.89"><defs><style>.cls-1,.cls-39,.cls-73{fill:none;}.cls-2,.cls-50,.cls-53{fill:#ffb6b1;}.cls-3{isolation:isolate;}.cls-4{opacity:0.54;}.cls-5{fill:#cad8d4;}.cls-6{fill:#00ba8f;fill-rule:evenodd;}.cls-7{fill:url(#Degradado_sin_nombre_20);}.cls-8{fill:url(#Degradado_sin_nombre_20-2);}.cls-9{fill:url(#Degradado_sin_nombre_20-3);}.cls-10{fill:#bcebed;}.cls-11{clip-path:url(#clip-path);}.cls-12{fill:#5c211a;}.cls-13,.cls-50,.cls-52,.cls-53,.cls-56,.cls-59,.cls-63,.cls-64,.cls-66,.cls-72{mix-blend-mode:multiply;}.cls-14{mix-blend-mode:screen;}.cls-15,.cls-63,.cls-64,.cls-66{fill:#e17b65;}.cls-16{fill:url(#Degradado_sin_nombre_20-4);}.cls-17{fill:url(#Degradado_sin_nombre_20-5);}.cls-18{fill:url(#Degradado_sin_nombre_20-6);}.cls-19{fill:url(#Degradado_sin_nombre_20-7);}.cls-20{fill:url(#Degradado_sin_nombre_20-8);}.cls-21{fill:url(#Degradado_sin_nombre_20-9);}.cls-22{fill:#f5c127;}.cls-23{fill:#005988;}.cls-24{fill:#ffed00;}.cls-25{fill:#fff9c7;}.cls-26{fill:#254a63;}.cls-27{fill:#0b8a85;}.cls-28{fill:#e6dd96;}.cls-29{fill:#fbca8e;}.cls-30{fill:#eeab67;}.cls-31{fill:#fff;}.cls-32{fill:#f9c285;}.cls-33{fill:#622b5a;}.cls-34{fill:#9f4795;}.cls-35{fill:#7a3771;}.cls-36{fill:#f195a2;}.cls-37,.cls-40,.cls-52{opacity:0.39;}.cls-37{fill:url(#linear-gradient);}.cls-38{fill:#c57036;}.cls-39{stroke:#70422c;stroke-width:0.79px;}.cls-39,.cls-73{stroke-miterlimit:10;}.cls-40{fill:url(#linear-gradient-2);}.cls-41{fill:#a56052;}.cls-42{fill:#e8c0a8;}.cls-43{fill:url(#Degradado_sin_nombre_20-10);}.cls-44{fill:url(#Degradado_sin_nombre_20-11);}.cls-45{fill:url(#Degradado_sin_nombre_20-12);}.cls-46{fill:url(#Degradado_sin_nombre_20-13);}.cls-47{fill:url(#Degradado_sin_nombre_20-14);}.cls-48{fill:url(#Degradado_sin_nombre_20-15);}.cls-49{fill:url(#Degradado_sin_nombre_20-16);}.cls-50,.cls-66{opacity:0.51;}.cls-51{clip-path:url(#clip-path-2);}.cls-54{fill:#171c38;}.cls-55{fill:#ff5f18;}.cls-56{fill:#ffeeea;}.cls-57{fill:#3373ff;}.cls-58{clip-path:url(#clip-path-3);}.cls-59{opacity:0.41;}.cls-60{fill:#ffb600;}.cls-61{fill:#92d448;}.cls-62{fill:#77a0ff;}.cls-63{opacity:0.5;}.cls-65{fill:#12131c;}.cls-67{fill:#2b1a18;}.cls-68{opacity:0.3;}.cls-69{fill:#353231;}.cls-70{fill:#3c3938;}.cls-71{fill:#6dac44;}.cls-72{opacity:0.44;}.cls-73{stroke:#171c38;stroke-width:0.91px;}</style><linearGradient id="Degradado_sin_nombre_20" x1="-11423.96" y1="-1009.49" x2="-11459.44" y2="-1074.32" gradientTransform="matrix(-0.98, -0.21, -0.21, 0.98, -10957.58, -1117.46)" gradientUnits="userSpaceOnUse"><stop offset="0" stop-color="#1d6f58"/><stop offset="1" stop-color="#259073" stop-opacity="0"/></linearGradient><linearGradient id="Degradado_sin_nombre_20-2" x1="-9254.83" y1="-3525.16" x2="-9281.78" y2="-3574.41" gradientTransform="matrix(-0.73, -0.68, -0.68, 0.73, -8757.17, -3390.42)" xlink:href="#Degradado_sin_nombre_20"/><linearGradient id="Degradado_sin_nombre_20-3" x1="-51.74" y1="3732.13" x2="-88.69" y2="3664.61" gradientTransform="matrix(0.85, -0.53, 0.53, 0.85, -1809.96, -2881.83)" xlink:href="#Degradado_sin_nombre_20"/><clipPath id="clip-path"><rect class="cls-1" x="76.85" y="105.78" width="377.07" height="255.4"/></clipPath><linearGradient id="Degradado_sin_nombre_20-4" x1="336.02" y1="814.87" x2="300.54" y2="750.05" gradientTransform="translate(-176.04 -496.47) rotate(-5.72)" xlink:href="#Degradado_sin_nombre_20"/><linearGradient id="Degradado_sin_nombre_20-5" x1="-11897.26" y1="2781.09" x2="-11913.77" y2="2750.92" gradientTransform="matrix(-0.91, 0.41, 0.41, 0.91, -11744.65, 2571.03)" xlink:href="#Degradado_sin_nombre_20"/><linearGradient id="Degradado_sin_nombre_20-6" x1="-11814.04" y1="-33.52" x2="-11844.55" y2="-89.26" gradientTransform="matrix(-1, -0.04, -0.04, 1, -11542.11, -166.1)" xlink:href="#Degradado_sin_nombre_20"/><linearGradient id="Degradado_sin_nombre_20-7" x1="-11764.44" y1="-39.05" x2="-11782.31" y2="-71.72" gradientTransform="matrix(-1, -0.04, -0.04, 1, -11333.88, -208.37)" xlink:href="#Degradado_sin_nombre_20"/><linearGradient id="Degradado_sin_nombre_20-8" x1="99.13" y1="236.91" x2="62.18" y2="169.38" gradientTransform="matrix(1, 0.02, -0.02, 1, 32.08, 74.78)" xlink:href="#Degradado_sin_nombre_20"/><linearGradient id="Degradado_sin_nombre_20-9" x1="-3526.53" y1="7503.95" x2="-3540.84" y2="7477.8" gradientTransform="translate(-6687.18 -4426.9) rotate(-80.25)" xlink:href="#Degradado_sin_nombre_20"/><linearGradient id="linear-gradient" x1="615.96" y1="1116.8" x2="617.5" y2="1126.61" gradientTransform="matrix(0.99, -0.13, 0.13, 0.99, -468.47, -814.49)" gradientUnits="userSpaceOnUse"><stop offset="0" stop-color="#c9926a"/><stop offset="1" stop-color="#c9926a" stop-opacity="0"/></linearGradient><linearGradient id="linear-gradient-2" x1="-13769.15" y1="-769.29" x2="-13767.61" y2="-759.49" gradientTransform="matrix(-0.99, -0.13, -0.13, 0.99, -13442.08, -814.49)" xlink:href="#linear-gradient"/><linearGradient id="Degradado_sin_nombre_20-10" x1="148.58" y1="357.24" x2="126.03" y2="316.03" gradientTransform="matrix(1, 0, 0, 1, 0, 0)" xlink:href="#Degradado_sin_nombre_20"/><linearGradient id="Degradado_sin_nombre_20-11" x1="-1567.33" y1="-2705.85" x2="-1589.88" y2="-2747.06" gradientTransform="translate(3.22 3482.86) rotate(32.86)" xlink:href="#Degradado_sin_nombre_20"/><linearGradient id="Degradado_sin_nombre_20-12" x1="460.53" y1="918.21" x2="425.05" y2="853.38" gradientTransform="translate(-176.04 -496.47) rotate(-5.72)" xlink:href="#Degradado_sin_nombre_20"/><linearGradient id="Degradado_sin_nombre_20-13" x1="-472.78" y1="-1723.11" x2="-496.71" y2="-1766.85" gradientTransform="matrix(0.94, 0.34, -0.34, 0.94, 240.72, 2140.61)" xlink:href="#Degradado_sin_nombre_20"/><linearGradient id="Degradado_sin_nombre_20-14" x1="-2360.26" y1="-3620.56" x2="-2374.58" y2="-3646.72" gradientTransform="translate(-465.47 4598.27) rotate(44.54)" xlink:href="#Degradado_sin_nombre_20"/><linearGradient id="Degradado_sin_nombre_20-15" x1="-11810.14" y1="-189.48" x2="-11827.94" y2="-222" gradientTransform="matrix(-1, -0.09, -0.09, 1, -11611.54, -529.25)" xlink:href="#Degradado_sin_nombre_20"/><linearGradient id="Degradado_sin_nombre_20-16" x1="-11877.64" y1="-197.04" x2="-11890.21" y2="-220" gradientTransform="matrix(-1, -0.09, -0.09, 1, -11611.54, -529.25)" xlink:href="#Degradado_sin_nombre_20"/><clipPath id="clip-path-2"><path class="cls-2" d="M185,232.78c-1.6,5.49-5.89,7-9.85,7.89a36.65,36.65,0,0,1-2,3.26,40.48,40.48,0,0,1-5.77,6.62,22,22,0,0,1-11.89,6.7l-.4.07c-.26,0-.52.11-.78.14s-.36,0-.54,0h-.46a9.2,9.2,0,0,1-1,0c-.35,0-.69-.06-1.05-.1l-.44-.07c-.18,0-.36-.05-.54-.09s-.51-.16-.76-.23l-.4-.11a22,22,0,0,1-11.05-8,40.08,40.08,0,0,1-4.41-6.21,39,39,0,0,1-2.23-4.49c-3.83-1.33-7.93-3.31-8.89-9-.76-4.44.76-10.16,4.43-10.27a6.12,6.12,0,0,1,3.49,1.23,48.19,48.19,0,0,1,11.39-19.93,16.19,16.19,0,0,1,7.1-5.06,11.33,11.33,0,0,1,4.16-1c.94,0,1.87,0,2.79,0s1.84.13,2.78.27a11.44,11.44,0,0,1,4,1.45,16.11,16.11,0,0,1,6.48,5.83,48,48,0,0,1,9.07,21.09,6.25,6.25,0,0,1,3.6-.83C185.35,222.59,186.21,228.45,185,232.78Z"/></clipPath><clipPath id="clip-path-3"><path class="cls-2" d="M335.16,226.69c-1.65,5.69-6.1,7.25-10.2,8.17a37.69,37.69,0,0,1-2.11,3.37,43,43,0,0,1-6,6.87A22.78,22.78,0,0,1,304.56,252l-.41.08c-.27,0-.54.11-.82.14s-.37,0-.55,0h-.48a9.73,9.73,0,0,1-1.08,0c-.37,0-.72-.06-1.09-.11l-.46-.07-.56-.09c-.26-.06-.52-.16-.79-.23l-.4-.13a22.74,22.74,0,0,1-11.45-8.28,42.37,42.37,0,0,1-4.57-6.44,39.41,39.41,0,0,1-2.31-4.65c-4-1.37-8.21-3.43-9.2-9.26-.79-4.61.79-10.53,4.59-10.65a6.53,6.53,0,0,1,3.61,1.28A49.92,49.92,0,0,1,290.38,193a16.89,16.89,0,0,1,7.36-5.24,12,12,0,0,1,4.3-1c1,0,1.94,0,2.89.06s1.91.13,2.88.27a12.32,12.32,0,0,1,4.16,1.51,16.82,16.82,0,0,1,6.71,6,49.71,49.71,0,0,1,9.39,21.84,6.44,6.44,0,0,1,3.72-.86C335.56,216.14,336.46,222.21,335.16,226.69Z"/></clipPath></defs><g class="cls-3"><g id="Capa_2" data-name="Capa 2"><g id="OBJECTS"><g class="cls-4"><path class="cls-5" d="M25.37,361.18C8.93,354.08-1.78,335.58.25,317.79s16.63-33.4,34.24-36.62c6.43-1.17,13.09-.84,19.47-2.24s12.88-5.14,14.9-11.36c1.51-4.65.93-11,5.35-13.06,5.68-2.7,13.46,5.22,18,.84A7.15,7.15,0,0,0,93.89,250c-.19-11.92-12.6-23.4-7.15-34,5-9.8,22.89-11.7,22-22.68-.39-4.51-4.26-7.87-6.12-12-4.92-10.89,4.94-22.54,14.47-29.76,3.1-2.35,6.46-4.86,7.68-8.56,1.8-5.43-1.57-11-3-16.58-3.06-12,4.79-25.79,16.71-29.28,2.74-.8,5.66-1.13,8.19-2.46,7.5-3.93,8.24-14,10.49-22.21,6.06-22,31.71-36.48,53.68-30.25s36.23,32,29.84,53.91c-2,6.78-5.56,14.27-2.12,20.44,3.67,6.6,13.15,7.33,18.28,12.89,4.41,4.77,4.64,11.92,6.73,18.07s8.73,12.2,14.44,9.11c3.55-1.93,4.87-6.56,8.31-8.67,5.85-3.59,13.74,2,20.15-.42,11.82-4.46,2.69-25.54,12.21-33.83,5.72-5,15.44-2.55,21.17-7.55,8.58-7.49,2.3-26,13-30,8.63-3.21,17,8.43,26,6.58,8.51-1.74,10.07-13.08,15.3-20a18.82,18.82,0,0,1,33.75,13.13C427.49,80,425.77,84,426.33,88c1.74,12.61,21.69,13.76,27,25.36,3.55,7.8-1,16.62-4.17,24.6s-3.7,19.23,4,23c5,2.41,11.53.33,16.15,3.42,6.6,4.41,4.17,15.2,9,21.46s15.13,5.51,21.34,10.63c5.75,4.74,6.55,13.59,3.89,20.55s-8.79,11.81-13.29,17.75c-14,18.5,13.71,12.62,37.24,32.79s-32.78,38.66-4.2,60.51,23.53,23,9.24,33.11Z"/></g><path class="cls-6" d="M414.2,341.4c15.36-41.23,79.77-50.64,60.54-72.9s-55.87,26.94-70.83,70.65Z"/><path class="cls-7" d="M475.54,269.49a14.68,14.68,0,0,1,1.6,2.53c6.58,13.12-16.68,22.18-37.41,38.07-7.38,5.65-14.43,12.17-19.71,20.05a54.5,54.5,0,0,0-5.82,11.26l-4.32-.95-2.45-.53C421.33,308.35,448.93,281.5,475.54,269.49Z"/><path class="cls-6" d="M408.69,347.07c26-21,71.73-2.15,67.8-24.15s-46.94-4.06-73.66,18.69Z"/><path class="cls-8" d="M476.64,323.88a12.57,12.57,0,0,1,.06,2.27c-.79,11.12-19.5,8-39.2,10.36-7,.84-14.15,2.36-20.65,5.46a41.32,41.32,0,0,0-8.16,5.1l-2.46-2.29-1.39-1.3C426.16,328.25,454.59,321.41,476.64,323.88Z"/><path class="cls-6" d="M124.26,321.78c-29.45-35.11-95.95-21.9-84.84-50.45s64.23,7,94.16,44.66Z"/><path class="cls-9" d="M39,272.58a16.21,16.21,0,0,0-.69,3c-1.88,15.18,24.11,16,50,24.33,9.21,3,18.41,6.92,26.33,12.81a57.34,57.34,0,0,1,9.64,9l3.91-2.43,2.22-1.38C105.74,291.83,69.29,275.09,39,272.58Z"/><path class="cls-10" d="M100,91.3c13.6-7.55,23.67,8.56,9.07,8.56H20C9.4,89.79,39.61,74.69,54.71,90.8,66.79,67.64,94,55.05,100,91.3Z"/><path class="cls-10" d="M272,31.44c-14.6,0-3.52-15.61,11.58-8.56-10.57-34.24,42.79-26.68,42.29.5,12.59-15.6,32.95,7.05,11.58,7.05C316.31,30.43,272,31.44,272,31.44Z"/><path class="cls-10" d="M487.74,140.76c-8.57,0-4.53-20.13,16.11-5.53,6-28.2,48.33-16.62,39.27,3.52,13.6-12.08,23.67-4.53,8.56,2Z"/><g class="cls-11"><path class="cls-12" d="M274.9,205q-3.9,4.89-7.73,9.7c-1.92,2.41-4,5.76-2.76,9,1,2.81,4,3.84,5.12,6.56,1.19,2.91-.34,6.28-2.35,8s-4.47,2.52-6.33,4.4-2.9,5.52-1.26,8c1.41,2.09,4.14,2.33,5.36,4.55a5.35,5.35,0,0,1-1.27,6.21c-1.54,1.34-3.55,1.66-5.45,2.11s-3.86,1.17-5,3-.74,5,1.07,6c.68.38,1.45.41,2.11.82,1.27.81,1.72,2.84,1.3,4.36a7.51,7.51,0,0,1-2.49,3.53,8.76,8.76,0,0,1-4.6,2.53A4.67,4.67,0,0,1,246,281.1c-.13,6.3,4.54,12.11,9.67,14.56s10.61,2.35,15.94,2.22l25.79-.61c1.41,0,3-.18,3.87-1.45a6.18,6.18,0,0,0,.64-3.53c-.4-26.13-.83-54.56-1.3-85.58"/><path class="cls-12" d="M335,205l7.73,9.7c1.92,2.41,4,5.76,2.76,9-1,2.81-4,3.84-5.12,6.56-1.19,2.91.34,6.28,2.35,8s4.47,2.52,6.34,4.4,2.89,5.52,1.25,8c-1.4,2.09-4.13,2.33-5.35,4.55a5.33,5.33,0,0,0,1.27,6.21c1.53,1.34,3.54,1.66,5.44,2.11s3.87,1.17,5,3,.75,5-1.07,6c-.68.38-1.44.41-2.1.82-1.28.81-1.72,2.84-1.31,4.36a7.53,7.53,0,0,0,2.5,3.53,8.72,8.72,0,0,0,4.6,2.53,4.69,4.69,0,0,0,4.71-2.58c.12,6.3-4.54,12.11-9.67,14.56s-10.62,2.35-15.95,2.22l-25.79-.61c-1.41,0-3-.18-3.87-1.45a6.18,6.18,0,0,1-.64-3.53c.4-26.13.83-54.56,1.31-85.58"/><g class="cls-13"><g class="cls-14"><path class="cls-15" d="M335.56,214.46a6,6,0,0,1,3.51,2.07,8.81,8.81,0,0,1,1.86,3.82,13.53,13.53,0,0,1-1.4,8.35,37.09,37.09,0,0,1-1.94,3.6,8.73,8.73,0,0,0-1.26,3.15,4,4,0,0,0,.05,1.39,2.51,2.51,0,0,0,.58,1.07,15.79,15.79,0,0,0,2.87,2.12,15.86,15.86,0,0,1,3.23,3,16.24,16.24,0,0,1,1.26,1.81,6.2,6.2,0,0,1,.94,2.44,4,4,0,0,1-.81,3,6.12,6.12,0,0,1-2,1.64c-1.45.73-2.69,1-3.51,1.52-1.62,1-2.16,3.77-1.31,5.94s2.86,4.16,4.92,5.83a17.86,17.86,0,0,1-3.52-2,10.56,10.56,0,0,1-2.83-3.14,7.8,7.8,0,0,1-.94-4.37,6.07,6.07,0,0,1,2.16-4.26,23.61,23.61,0,0,1,3.65-2,3.16,3.16,0,0,0,1-.9,1,1,0,0,0,.16-.79,7.85,7.85,0,0,0-1.63-2.65,13.16,13.16,0,0,0-2.62-2.38,16.9,16.9,0,0,1-3.45-2.71,5.65,5.65,0,0,1-1.21-2.45,6.4,6.4,0,0,1,0-2.58,11.42,11.42,0,0,1,1.87-4.12c.75-1.15,1.47-2.17,2.11-3.27a18.4,18.4,0,0,0,1.55-3.39,9.35,9.35,0,0,0,.52-3.58A7,7,0,0,0,335.56,214.46Z"/></g><g class="cls-14"><path class="cls-15" d="M322.71,243.76a10,10,0,0,0-.72,4.13,9,9,0,0,0,.83,3.5,10.77,10.77,0,0,0,2.17,3,18.61,18.61,0,0,0,3.45,2.61,6.74,6.74,0,0,1-4.87-.5,7.91,7.91,0,0,1-3.67-3.69,7.47,7.47,0,0,1-.41-5.27A5.54,5.54,0,0,1,322.71,243.76Z"/></g><g class="cls-14"><path class="cls-15" d="M328.44,248.8a4.43,4.43,0,0,1,3.21,1.86,5.64,5.64,0,0,1,.9,1.76,7,7,0,0,1,.27,1.92,17.23,17.23,0,0,1-.4,3.11,7,7,0,0,0-.05,3,2.78,2.78,0,0,1-1.62-1.05,5.1,5.1,0,0,1-.86-1.75,12.42,12.42,0,0,1-.31-3.33,12,12,0,0,0-.19-2.55A15.5,15.5,0,0,0,328.44,248.8Z"/></g><g class="cls-14"><path class="cls-15" d="M275.16,237.6a41.47,41.47,0,0,0-2.84,3,6.77,6.77,0,0,0-1.49,3.23,4,4,0,0,0,.08,1.51,3,3,0,0,0,.68,1.2,19,19,0,0,0,1.35,1.35,9.5,9.5,0,0,1,1.55,2,8.42,8.42,0,0,1,1,4.92,9.1,9.1,0,0,1-1.72,4.52,10.6,10.6,0,0,1-7.69,4.17,14.4,14.4,0,0,0,5.53-5.51,7.11,7.11,0,0,0,.06-6.49c-.43-.88-1.48-1.65-2.52-3a5.58,5.58,0,0,1-1.05-2.55,6,6,0,0,1,.26-2.63,7.5,7.5,0,0,1,2.87-3.77A14.86,14.86,0,0,1,275.16,237.6Z"/></g><g class="cls-14"><path class="cls-15" d="M282.16,243.08a8.08,8.08,0,0,0-1.61,4.12,6.05,6.05,0,0,0,.69,3.57c.3.57.73,1.18,1.17,1.9a9,9,0,0,1,1.12,2.55,5.17,5.17,0,0,1,.13,1.53,3.62,3.62,0,0,1-.44,1.52,2.47,2.47,0,0,1-2.36,1.42,2.35,2.35,0,0,0,.85-1.91,3.32,3.32,0,0,0-.57-1.69,14.49,14.49,0,0,0-1.24-1.65,14.31,14.31,0,0,1-1.51-2.13,8.47,8.47,0,0,1-.57-1.41,6.5,6.5,0,0,1-.23-1.51,6.83,6.83,0,0,1,.52-2.88A5.46,5.46,0,0,1,282.16,243.08Z"/></g><g class="cls-14"><path class="cls-15" d="M285,248.39a4.59,4.59,0,0,1,1.88,1.55,4.66,4.66,0,0,1,.82,2.17,4.3,4.3,0,0,1-.44,2.45,2.87,2.87,0,0,1-2,1.6c-.15-.94-.32-1.54-.45-2.1a12,12,0,0,1-.28-1.6,10.38,10.38,0,0,1,0-1.79A6.75,6.75,0,0,1,285,248.39Z"/></g></g><path class="cls-6" d="M243.21,289.76C232.7,247,169.8,230.28,191.46,210.38s52.39,33.19,62.23,78.33Z"/><path class="cls-16" d="M190.54,211.27a15.77,15.77,0,0,0-1.87,2.33c-8,12.28,14,24,32.78,42.12,6.68,6.46,12.94,13.75,17.27,22.18a54.68,54.68,0,0,1,4.49,11.86l4.4-.44,2.49-.25C239.92,256.11,215.6,226.26,190.54,211.27Z"/><path class="cls-6" d="M255.73,280.06c-5.6-19.69,16-41,2.62-44s-13.53,25.5-7.1,46Z"/><path class="cls-17" d="M258.93,236.19a7.71,7.71,0,0,1,1.29.5c6.09,3.11-.14,12.92-3.54,24.59a40.46,40.46,0,0,0-1.87,13,25.47,25.47,0,0,0,.92,5.83l-1.88.84-1.06.47C249.3,265.7,252.26,248,258.93,236.19Z"/><path class="cls-6" d="M259.91,295c6.87-37.19,60-54.73,40.43-70.73S257,255.36,250.86,294.6Z"/><path class="cls-18" d="M301.17,225a13.6,13.6,0,0,1,1.73,1.9c7.52,10.14-10.83,21.27-26,37.8-5.41,5.89-10.41,12.46-13.71,19.91a46.61,46.61,0,0,0-3.25,10.4l-3.8-.15-2.16-.09C261,265.93,280.42,239.09,301.17,225Z"/><path class="cls-6" d="M418.89,281.89c4.1-21.79,35.29-32,23.84-41.38s-25.45,18.16-29.14,41.14Z"/><path class="cls-19" d="M443.21,240.94a7.92,7.92,0,0,1,1,1.12c4.39,5.95-6.39,12.44-15.33,22.1a43.85,43.85,0,0,0-8.07,11.64,27.2,27.2,0,0,0-1.93,6.09l-2.22-.1-1.27-.06C419.61,264.87,431,249.18,443.21,240.94Z"/><path class="cls-6" d="M129.92,323c-5.68-45.47-68.71-70.45-43.89-88.41s50.18,40.71,54.87,88.6Z"/><path class="cls-20" d="M85,235.43a17,17,0,0,0-2.22,2.18c-9.82,11.73,11.59,26.49,28.8,47.56,6.12,7.5,11.71,15.8,15.16,25.05a55.79,55.79,0,0,1,3.2,12.81l4.61.08,2.61,0C130.62,287.82,109.08,254,85,235.43Z"/><path class="cls-6" d="M115.54,318.76c-17.74-.51-31,22.15-36.43,11.58s18.54-16.8,37.15-15.77C115.49,319,115.54,318.76,115.54,318.76Z"/><path class="cls-21" d="M79.36,330.79a5.86,5.86,0,0,0,.7,1c3.91,4.45,10.82-2.87,19.9-8.21a34.52,34.52,0,0,1,10.49-4.33,21.5,21.5,0,0,1,5.09-.47s0-.22.3-1.76c0-.29.1-.62.17-1C102.1,316.41,87.88,322.66,79.36,330.79Z"/><path class="cls-22" d="M343.4,252.47c9.19-3.3,21.7-8,21.7-8,16.43,2.48,8.55-8.35,7.31-10.7-3-5.63-8.64-14.39-12.17-12.64-4.86,2.43-14.11,7.11-24.07,12.66-25.4,14.16-37.4,25.8-37.59,26.66-.74,3.4,3.73,13.93,3.73,13.93S339,254.06,343.4,252.47Z"/><path class="cls-23" d="M384.47,383.06l-3.67-71L358,316.48s-1.91,35.83-3,60.44"/><path class="cls-23" d="M413.43,312.1s-5.78,12.08,6.46,65.49C416.51,381.49,393,377,393,377l-5.18-58.87Z"/><path class="cls-23" d="M363.69,339.72c8.95,6.61,37.18,4,48.75-3-.42-6.47,0-17.9,0-17.9l-48.33.82Z"/><path class="cls-24" d="M388.8,204.53c-20.28,0-33.4,10.14-34.19,48.31S352,317.65,352,317.65s33.4,11.53,67.4,0c-1-17.09-1.27-53.67-1.79-63.22C415.84,221.63,409.08,204.53,388.8,204.53Z"/><path class="cls-25" d="M201.13,267.16c-9.69,1.11-36.21,19.54-36.21,19.54-13.62,9.5-16.65-7.95-19.15-8.37-1.74-.29,4.46-14.06,8.33-14.81C167.3,261,186.82,253.4,203,252.86c29.07-1,45.21,4.24,45.76,4.93,2.17,2.72,2.84,14.14,2.84,14.14S205.79,266.63,201.13,267.16Z"/><path class="cls-26" d="M220,267.16s-6.41,1.84-17.59-5.51c-7.37-4.85-44.33,55.94-44.33,55.94s7.65,5.84,10.66,6.75,29.88-28.1,32.4-26.68c1.79,1,3.47,22.64,3.47,22.64S225.69,275.45,220,267.16Z"/><path class="cls-26" d="M225.29,271.09s15.4-14,26.47-11.77c16.55,3.35,37.88,89.13,37.88,89.13a77.58,77.58,0,0,1-17.3-.72c-3.34-.58-20.78-50.11-19.89-48.25s-1.81,15.88-1.81,15.88S220.94,280.46,225.29,271.09Z"/><path class="cls-27" d="M254,306.59c.5-16.6-3.32-39.78-2.16-47,0,0-15.74-4.44-25.74-3.53A67.18,67.18,0,0,0,208,260c-1.86.79-12.73,102.56-11.68,107.3,1.28,5.77,60.88,5.48,56-2.65C252.3,364.69,253.78,312.25,254,306.59Z"/><path class="cls-26" d="M197,265S190.8,376.29,190.8,379.5s11.83,1.92,13.43,2.24,9-120.31,9-122.9C213.26,258,197,261.77,197,265Z"/><path class="cls-26" d="M253.13,259.32s-6.49-2.22-11.26-2.39c-1,0-3.76,69.33-3.76,78.94,0,2.27-1.28,42.95-1.6,43.91s22.75-2.25,24-4.17S256.65,269.25,253.13,259.32Z"/><path class="cls-25" d="M186.69,370.57c-1.25-10.33-2.95-21.37-5.2-32.21-3.22-15.41-3.86-20.23,1.44-34a23.61,23.61,0,0,0,3.13-11.3c0-3.93-2.86-10.07-6.5-15.25-.58-3-14.76-15.59-18.26-15.66-19.38-.4-34.55,9-34.55,9,1.18,7.38,7.53,31.9,8.81,46s-4.17,19.59-7.38,41.74c-.48,3.26-.88,6.46-1.22,9.58"/><path class="cls-28" d="M177.51,300.24c-13.55,1.72-40.25,5.42-24,6.75S188.08,298.89,177.51,300.24Z"/><path class="cls-29" d="M260.66,269.89l.27-2.88-2-1.15,2-.32.11-2-11.29-8.6-.87-.25a19.51,19.51,0,0,0-9.32-.58,20.33,20.33,0,0,0-2.68.84c1.12,3.59,2.42,8.4,2.42,8.4l10.45,11.55,1.5-1.28-5-8.7,8.3,5.71,9.27,7.41,1.79-1.81-10.54-9.7Z"/><path class="cls-30" d="M138.6,265.91s3.79,9.06,15.32,9,13.67-7.89,8.92-12.21c-1.48-1.35-11.78-.8-11.78-.8S140.11,265.48,138.6,265.91Z"/><path class="cls-31" d="M267.34,360.5Z"/><path class="cls-30" d="M150.4,270.73a26.22,26.22,0,0,1-3.57-3.4l-.31-26.62,12.7.08,2.15,27.86C158.29,271.41,154,273.51,150.4,270.73Z"/><path class="cls-32" d="M123.87,377l-4-45.63c-.83-3.11-1.77-4.88-6.22-5.6-6.73-1.09-4.77,12.85-4.77,12.85l9.49,39.87C120.78,379.1,123.83,378.57,123.87,377Z"/><path class="cls-25" d="M130.48,269.88c-4.73-.05-10,7-11.92,13.32l-10.18,48.49s.92,1.09,6.26,1.43,6.93-1.14,6.93-1.14l14.83-42.73S137.64,270,130.48,269.88Z"/><path class="cls-33" d="M276.92,384.71c7.45,5.51,30.95,3.33,40.58-2.52-.34-5.39,0-14.9,0-14.9l-40.24.69Z"/><path class="cls-34" d="M272,336.15c3.86-15.44,3.9-20.45-1.46-34.4a23.91,23.91,0,0,1-3.16-11.43c0-4,2.89-10.19,6.57-15.42.58-3.08,14.92-15.76,18.46-15.83,19.6-.4,34.93,9.11,34.93,9.11-1.2,7.47-7.61,32.26-8.91,46.54s2.63,20.1,7.47,42.21A87.17,87.17,0,0,1,328,373.6c-2.89,6.26-62.16,6.67-64,0C263,369.74,266.53,358.07,272,336.15Z"/><path class="cls-35" d="M276,297.6c13.69,1.75,40.7,5.48,24.29,6.83S265.34,296.24,276,297.6Z"/><path class="cls-36" d="M278.14,224.48c0,.47,1.39.85,3.11.85s3.12-.38,3.12-.85-1.4-.85-3.12-.85S278.14,224,278.14,224.48Z"/><path class="cls-37" d="M292.39,210.49c.8,2.26,3.51,10.44-2.92,12.37s-6.67-8.63-6.67-8.63S289.47,211.43,292.39,210.49Z"/><path class="cls-38" d="M290.77,210.27c-7.1,1.28-11.45,5.83-5,4.24S294.48,209.59,290.77,210.27Z"/><path class="cls-39" d="M287.23,222.56c1.12-4.13,5.52-3.55,6-.34"/><path class="cls-40" d="M305.09,210.49c-.8,2.26-3.5,10.44,2.92,12.37s6.67-8.63,6.67-8.63S308,211.43,305.09,210.49Z"/><path class="cls-38" d="M306.71,210.27c7.1,1.28,11.45,5.83,5,4.24S303,209.59,306.71,210.27Z"/><path class="cls-39" d="M310.25,222.56c-1.12-4.13-5.52-3.55-6-.34"/><path class="cls-36" d="M312.78,224.48c0,.47,1.4.85,3.12.85s3.11-.38,3.11-.85-1.39-.85-3.11-.85S312.78,224,312.78,224.48Z"/><path class="cls-41" d="M300.14,226.32a10.75,10.75,0,0,0-2.82-.59,3.62,3.62,0,0,0-2.61.71c-.74.58-.46,1.68.17,2.35a10.1,10.1,0,0,0,2.23,1.81,7.92,7.92,0,0,1-2.45-1.62c-.16-.19-.31-.4-.46-.61a2.58,2.58,0,0,1-.25-.74,1.53,1.53,0,0,1,.51-1.46,3.76,3.76,0,0,1,2.88-.72A8,8,0,0,1,300.14,226.32Z"/><path class="cls-41" d="M303.93,237a2.22,2.22,0,0,1-.19,1.47,4,4,0,0,1-.9,1.22,4.63,4.63,0,0,1-2.78,1.19,8.17,8.17,0,0,1-3-.4c-.47-.15-.93-.36-1.39-.54s-.87-.47-1.3-.72c.47.16.92.35,1.38.53s.93.31,1.4.43a8.7,8.7,0,0,0,2.86.28,4.55,4.55,0,0,0,2.61-1A3.14,3.14,0,0,0,303.93,237Z"/><path class="cls-32" d="M330.27,375.21l4-46.14c.84-3.15,1.78-4.93,6.29-5.66,6.8-1.1,4.82,13,4.82,13l-9.6,40.3C333.38,377.34,330.3,376.8,330.27,375.21Z"/><path class="cls-34" d="M323.57,266.92c4.79-.06,10.13,7.11,12.06,13.46l10.29,49s-.93,1.11-6.33,1.45-7-1.15-7-1.15l-15-43.2S316.34,267,323.57,266.92Z"/><path class="cls-32" d="M292.7,261.59c-.14,2.12-1.32,11.11-1.32,11.11l-6.08,8.57-1.86,0,3.67-9.51-6.06,4.77-9.17,6.4-1.42-1.54L280,272.6l-9.76,7-.46-.93,7.87-8.29-7.26,7.37-.27-1.57,6.11-8-5.86,6.28-.19-1.7,5.8-7.7,17-7.65Z"/><path class="cls-42" d="M418.7,327.51c-.12.73-8.28,10.94-8.28,10.94l-4.49,10.36,1.08,1.68,6.68-8.67-1,8.23-.77,12,2.2.44,2.75-13.61-1,12.89,1.11-.1,3.22-11.84-2.72,10.77L419,360l4-10.08-2.5,8.88,1.67-.78,3.83-9.61-2.45-19.9Z"/><path class="cls-22" d="M417.09,328.83l3.16-49.66c.82-3.39,1.79-5.34,6.61-6.23,7.29-1.35,5.5,13.84,5.5,13.84L423,330.31C420.48,331,417.17,330.55,417.09,328.83Z"/><path class="cls-22" d="M407.23,212.67c5.14-.18,11,7.4,13.28,14.17l12.26,52.4s-1,1.21-6.76,1.72-7.55-1.07-7.55-1.07-16.22-37.69-17.18-46S399.46,213,407.23,212.67Z"/><path class="cls-6" d="M150.39,363.1c-3.94-27.68-42.67-42.26-27.71-53.48s31,24.31,34.41,53.48Z"/><path class="cls-43" d="M122.05,310.13a8.87,8.87,0,0,0-1.33,1.35c-5.87,7.26,7.34,16,18.07,28.72a55.21,55.21,0,0,1,9.52,15.12,34.19,34.19,0,0,1,2.08,7.78h4.41C150.45,341.61,137,321.19,122.05,310.13Z"/><path class="cls-6" d="M152.93,365.57c11.7-25.39-12.92-58.65,5.74-60s12.89,37.27-.11,63.6Z"/><path class="cls-44" d="M157.86,305.69a10.3,10.3,0,0,0-1.85.42c-8.87,2.91-2.53,17.46-.4,33.93a55.26,55.26,0,0,1-.21,17.87,34.73,34.73,0,0,1-2.47,7.66l2.36,1.53,1.34.86C164.63,347.55,164.37,323.07,157.86,305.69Z"/><path class="cls-6" d="M377.39,380.18c-10.51-42.72-73.41-59.47-51.75-79.38S378,334,387.88,379.13Z"/><path class="cls-45" d="M324.73,301.69a15.88,15.88,0,0,0-1.88,2.33c-8.05,12.28,14,24,32.79,42.12,6.68,6.47,12.93,13.75,17.27,22.18a54.34,54.34,0,0,1,4.48,11.86l4.4-.44,2.5-.25C374.11,346.53,349.78,316.68,324.73,301.69Z"/><path class="cls-6" d="M382.79,366c6.07-29.06-27.31-57.61-8.32-63.4s22.19,35.49,15,65.82Z"/><path class="cls-46" d="M373.66,302.9a10,10,0,0,0-1.83.87c-8.48,5.12,1.54,18.66,7.66,35.19a58.5,58.5,0,0,1,4,18.54,36.24,36.24,0,0,1-.73,8.52l2.8,1,1.6.57C390.61,344.59,384.52,319.33,373.66,302.9Z"/><path class="cls-6" d="M389.8,365.51c10.54-14.29-.49-38.13,11.28-36.54s3.22,24.82-8.25,39.52C389.62,365.32,389.8,365.51,389.8,365.51Z"/><path class="cls-47" d="M400.56,328.91a6.77,6.77,0,0,0-1.2,0c-5.89.67-3.82,10.53-4.61,21a34.85,34.85,0,0,1-2.43,11.08,21.69,21.69,0,0,1-2.52,4.46l1.27,1.25.73.71C399.4,355.8,402.38,340.55,400.56,328.91Z"/><path class="cls-6" d="M164.55,370.71c5.1-21.47,36.59-30.11,25.65-40S164,347.55,159.28,370.23Z"/><path class="cls-48" d="M190.66,331.14a8.08,8.08,0,0,1,1,1.16c4.09,6.13-6.94,12.07-16.28,21.25a43.36,43.36,0,0,0-8.58,11.2,27.22,27.22,0,0,0-2.2,6l-2.21-.2-1.25-.12C166.06,353.82,178.15,338.76,190.66,331.14Z"/><path class="cls-6" d="M233,368.07c3.6-15.16,25.84-21.27,18.11-28.26s-18.47,11.9-21.83,27.91Z"/><path class="cls-49" d="M251.44,340.12a5.37,5.37,0,0,1,.67.82c2.89,4.33-4.9,8.52-11.5,15a30.89,30.89,0,0,0-6.06,7.91,19.25,19.25,0,0,0-1.55,4.21l-1.56-.15-.89-.08C234.07,356.14,242.6,345.5,251.44,340.12Z"/><path class="cls-2" d="M162.7,250v17.53a9.77,9.77,0,0,1-19.51,0V250a9,9,0,0,1,3.58-7.15,10.18,10.18,0,0,1,13.07.62A9,9,0,0,1,162.7,250Z"/><path class="cls-50" d="M162.7,250v14.82a10,10,0,0,1-6.18,2.09,9.49,9.49,0,0,1-9.75-9.22V242.8a10.18,10.18,0,0,1,13.07.62A9,9,0,0,1,162.7,250Z"/><path class="cls-2" d="M185,232.78c-1.6,5.49-5.89,7-9.85,7.89a36.65,36.65,0,0,1-2,3.26,40.48,40.48,0,0,1-5.77,6.62,22,22,0,0,1-11.89,6.7l-.4.07c-.26,0-.52.11-.78.14s-.36,0-.54,0h-.46a9.2,9.2,0,0,1-1,0c-.35,0-.69-.06-1.05-.1l-.44-.07c-.18,0-.36-.05-.54-.09s-.51-.16-.76-.23l-.4-.11a22,22,0,0,1-11.05-8,40.08,40.08,0,0,1-4.41-6.21,39,39,0,0,1-2.23-4.49c-3.83-1.33-7.93-3.31-8.89-9-.76-4.44.76-10.16,4.43-10.27a6.12,6.12,0,0,1,3.49,1.23,48.19,48.19,0,0,1,11.39-19.93,16.19,16.19,0,0,1,7.1-5.06,11.33,11.33,0,0,1,4.16-1c.94,0,1.87,0,2.79,0s1.84.13,2.78.27a11.44,11.44,0,0,1,4,1.45,16.11,16.11,0,0,1,6.48,5.83,48,48,0,0,1,9.07,21.09,6.25,6.25,0,0,1,3.6-.83C185.35,222.59,186.21,228.45,185,232.78Z"/><g class="cls-51"><path class="cls-2" d="M124.45,214.75a19.06,19.06,0,0,1,3.43,10.89,33.17,33.17,0,0,1-2.43,12.27c-.87,2.3-1.9,4.55-3,6.78-.07.14.14.26.21.12a61.29,61.29,0,0,0,4.67-12.38,25.16,25.16,0,0,0,0-11.92,17.52,17.52,0,0,0-2.76-5.88c-.09-.12-.3,0-.21.12Z"/><g class="cls-52"><path class="cls-2" d="M184.4,203.14c-1.21,1-3,.63-4.26-.34a17.39,17.39,0,0,1-3-3.66A23.66,23.66,0,0,0,165.65,191,41.61,41.61,0,0,0,151.72,189a36.84,36.84,0,0,0-12.51,2,19.77,19.77,0,0,0-10,7.83,64.71,64.71,0,0,0-3.16,6.55A24.65,24.65,0,0,1,122,211a12.6,12.6,0,0,0,4.5-1.1,19,19,0,0,0-4,12.59c.13,2.69.67,5.41.31,8.1s-1.77,4.64-2.67,7c-.83,2.16-1,4.93.59,6.53,1,.95,2.32,1.25,3.5,1.85,2.69,1.37,2.69,4.89.62,6.9-1.51,1.45-3.44,2.55-4.34,4.49-1.5,3.24.89,7.32,4.1,8.56s6.8.37,10-.86c-1.44-.22-1.65-2.56-.64-3.67a7,7,0,0,1,3.66-1.65c1.89-.49,4.1-1.68,3.57-4.18s-3.61-3.36-4-6a4.82,4.82,0,0,1,1.1-3.37c1.08-1.49,2.6-2.9,2.89-4.85.53-3.5-1.88-6.67-2.81-10.08-1.18-4.33.69-7.63,1.82-11.64a28.83,28.83,0,0,1,1.21-4.35c1.13-2.48,3.54-4,5.81-5.33l-5.84,6.15a55.19,55.19,0,0,0,12.51-5.47,21.51,21.51,0,0,1-3.57,7.49,70.67,70.67,0,0,0,10-7.86,12.49,12.49,0,0,1-2.34,5.64,19.09,19.09,0,0,0,8.92-6.1A21.8,21.8,0,0,0,169.21,224a20.44,20.44,0,0,1,2,4,4.3,4.3,0,0,1-.71,4.2,8.19,8.19,0,0,0,2.87-4.72A10,10,0,0,0,175,235.4a12.29,12.29,0,0,1,3.83-10,10.43,10.43,0,0,0,2.22-2.28,7,7,0,0,0,.66-3.31,38.32,38.32,0,0,0-2-13A6.19,6.19,0,0,0,184.4,203.14Z"/></g></g><path class="cls-53" d="M181.82,232a.8.8,0,0,0-1.07.28l-.07.09-.05.06a1.51,1.51,0,0,1-.21.23l-.25.24-.08.07L180,233a4.86,4.86,0,0,1-.54.33l-.25.13-.07,0-.17.06a4.21,4.21,0,0,1-.61.16l-.14,0h0l-.31,0a3.88,3.88,0,0,1-.59,0c.07-.11.13-.23.21-.34l.12-.17.09-.11.21-.25a7,7,0,0,1,.54-.55l.29-.26.13-.1.07-.06a7.13,7.13,0,0,1,1.37-.78.79.79,0,0,0,.28-1.07.81.81,0,0,0-1.07-.28,8.15,8.15,0,0,0-4.47,5.18.78.78,0,0,0,1.51.42c0-.06,0-.12,0-.17A5.42,5.42,0,0,0,182.1,233,.79.79,0,0,0,181.82,232Z"/><path class="cls-54" d="M165.58,226.56a.55.55,0,0,0-.77,0,.86.86,0,0,1-.13.14l-.06.06,0,0,0,0-.07.05-.17.09-.08,0a1.15,1.15,0,0,1-.17.06l-.17,0-.1,0s-.09,0,0,0c-.11,0-.24,0-.35,0h-.17l-.09,0h0a1.62,1.62,0,0,0-1.34-1.07c-1,0-1.86,1.13-1.94,2.61s.65,2.7,1.64,2.73,1.86-1.12,1.94-2.6a3.35,3.35,0,0,0,0-.55,2.75,2.75,0,0,0,2.12-.89A.55.55,0,0,0,165.58,226.56Z"/><path class="cls-54" d="M144.88,225.55a1.76,1.76,0,0,0-1.51,1.06l-.15,0H143l-.31,0h0l-.15,0-.28-.08,0,0-.13-.07-.26-.17a.53.53,0,0,0-.74.19.56.56,0,0,0,.19.74,2.74,2.74,0,0,0,1.73.52,3.32,3.32,0,0,0-.06.44c-.08,1.48.65,2.71,1.64,2.74s1.86-1.13,1.95-2.6S145.87,225.59,144.88,225.55Z"/><path class="cls-53" d="M146.49,236.72a9.88,9.88,0,0,1,1.35-1.87,14.63,14.63,0,0,0,1.39-2.18,14.39,14.39,0,0,0,1.49-4.88.9.9,0,0,1,1-.68.83.83,0,0,1,.63,1,16.15,16.15,0,0,1-3.31,7.87c-.69.88-1.69,1.83-.78,2.85s2.54.82,3.81.71c1.09-.11,1.15,1.6.05,1.7-1.64.15-3.4.22-4.73-.83A3,3,0,0,1,146.49,236.72Z"/><path class="cls-54" d="M146.48,217.19a2,2,0,0,0-1.11-.16c-2.36.25-4.16,2.24-4.57,4.91a2.8,2.8,0,0,1,.6-.95l0,0a2.54,2.54,0,0,1,.48-.45,5.42,5.42,0,0,1,2.29-.73,7.93,7.93,0,0,0,2.35-.57,1,1,0,0,0,.66-.95A1.45,1.45,0,0,0,146.48,217.19Z"/><path class="cls-54" d="M161.12,217a2,2,0,0,1,1.09-.34c2.37-.16,4.31,1.51,4.91,4.1a2.44,2.44,0,0,0-.67-.84s0,0-.06,0a2.08,2.08,0,0,0-.51-.37,5.1,5.1,0,0,0-2.32-.34,7.55,7.55,0,0,1-2.39-.17.88.88,0,0,1-.72-.83A1.6,1.6,0,0,1,161.12,217Z"/><path class="cls-53" d="M159.84,242.5a10.67,10.67,0,0,1-9.9,2,.78.78,0,0,0-.42,1.51A12.3,12.3,0,0,0,161,243.61C161.72,243,160.61,241.86,159.84,242.5Z"/><path class="cls-55" d="M184.29,245.84c-.15,2.3-.67,5.4-3,6.44s-4.16-1.17-5.09-3.08a13.71,13.71,0,0,1,1-13.55c.28-.41,1,0,.67.4a12.59,12.59,0,0,0-2.21,6.69,12.78,12.78,0,0,0,1.22,6.06,6.25,6.25,0,0,0,1.91,2.54,2.38,2.38,0,0,0,3.05-.35,5.75,5.75,0,0,0,1.43-3,15.11,15.11,0,0,0,.34-3.48,15.53,15.53,0,0,0-1.66-6.79c.2-.16.4-.34.6-.53l0,0A16.59,16.59,0,0,1,184.29,245.84Z"/><path class="cls-54" d="M173.07,238.1v5.83c-.42.6-.86,1.19-1.31,1.78a41,41,0,0,1-4.46,4.84,22,22,0,0,1-11.89,6.7l-.4.07c-.26,0-.52.11-.78.14s-.36,0-.54,0h-.46a9.2,9.2,0,0,1-1,0c-.35,0-.69-.06-1.05-.1l-.44-.07c-.18,0-.36-.05-.54-.09s-.51-.16-.76-.23l-.4-.11a22,22,0,0,1-11.05-8,38.89,38.89,0,0,1-2.86-3.74c-.55-.8-1.07-1.63-1.55-2.47V238a3.26,3.26,0,0,1,2.54-3.18c10.87-2.45,22.4-2,34.32.12A3.26,3.26,0,0,1,173.07,238.1Z"/><path class="cls-54" d="M129.87,220.25c1.32,6.6,2.73,13.46,6.75,19,.29.4,1,0,.67-.39-4-5.51-5.36-12.3-6.66-18.84-.1-.49-.86-.28-.76.21Z"/><path class="cls-54" d="M177.63,221.83c-2.12,6.28-4.35,12.82-9,17.74-.35.37.2.92.55.56,4.73-5,7-11.68,9.18-18.09.16-.48-.59-.68-.75-.21Z"/><path class="cls-31" d="M171.76,240.19v5.87a40.25,40.25,0,0,1-4.45,4.85q-.59.61-1.2,1.17a21.48,21.48,0,0,1-10.7,5.53l-.39.07c-.27,0-.53.11-.79.14s-.36,0-.54,0h-.46a9.22,9.22,0,0,1-1,0c-.35,0-.69-.06-1-.11l-.45-.07c-.18,0-.36,0-.54-.08l-.15,0-.61-.19-.39-.11a20.17,20.17,0,0,1-3.85-1.64,22.36,22.36,0,0,1-5.73-4.59c-.52-.57-1-1.16-1.48-1.78s-1-1.2-1.48-1.82-.94-1.26-1.38-1.92l-.24-.46v-5c0-.1,0-.2,0-.3a2.48,2.48,0,0,1,0-.27h0a3.31,3.31,0,0,1,2.34-2.79c1.23-.32,2.47-.59,3.72-.82s2.57-.43,3.87-.57c.29,0,.58-.07.87-.09l.15,0c1.71-.16,3.42-.25,5.16-.28h0c1.11,0,2.23,0,3.36,0h0c2.3.08,4.63.27,7,.56h.12l1.55.21c1.52.21,3,.46,4.55.75.57.1,1.13.21,1.69.33a2.68,2.68,0,0,1,.67.24,1.38,1.38,0,0,1,.34.18A3.58,3.58,0,0,1,171.76,240.19Z"/><path class="cls-55" d="M159.06,242.87c-3.23-1.43-7.35-2.13-10.44,0-.43.3,0,1,.43.68a.41.41,0,0,0,.38.2l9.41-.14C159.25,243.59,159.47,243,159.06,242.87Z"/><path class="cls-55" d="M157.94,243.31l-.26.09s0,0-.05,0l-.47.12,0,0-.17.05c-.3,0-.61.08-.92.12-.68.06-1.36.13-2,.17a13.08,13.08,0,0,1-4.13-.32.25.25,0,0,0-.24.08l0,0c-.23-.51-.8,0-.57.47a4.76,4.76,0,0,0,5.84,2.69,6.69,6.69,0,0,0,2.42-1.17c.46-.34,1.32-1.05,1.05-2C158.26,243.38,158.12,243.23,157.94,243.31Z"/><path class="cls-55" d="M146.21,237.26a5.88,5.88,0,0,1-11.33,2.2h0a3.31,3.31,0,0,1,2.34-2.79c1.23-.32,2.47-.59,3.72-.82s2.57-.43,3.87-.57c.29,0,.58-.07.87-.09l.15,0A5.84,5.84,0,0,1,146.21,237.26Z"/><path class="cls-55" d="M171.76,240.19v.42a5.87,5.87,0,0,1-10.7-3.35,5.49,5.49,0,0,1,.28-1.78h.12l1.55.21c1.52.21,3,.46,4.55.75.57.1,1.13.21,1.69.33a2.68,2.68,0,0,1,.67.24,1.38,1.38,0,0,1,.34.18A3.58,3.58,0,0,1,171.76,240.19Z"/><path class="cls-54" d="M159,242.85a33.11,33.11,0,0,1-10.65.25c-.5-.07-.71.68-.21.75a34,34,0,0,0,11.07-.25C159.7,243.51,159.5,242.75,159,242.85Z"/><path class="cls-56" d="M171.76,240.19v5.87a40.25,40.25,0,0,1-4.45,4.85q-.59.61-1.2,1.17a21.48,21.48,0,0,1-10.7,5.53l-.39.07c-.27,0-.53.11-.79.14s-.36,0-.54,0h-.46a9.22,9.22,0,0,1-1,0c-.35,0-.69-.06-1-.11l-.45-.07c-.18,0-.36,0-.54-.08l-.15,0-.61-.19-.39-.11a20.17,20.17,0,0,1-3.85-1.64,22.36,22.36,0,0,1-5.73-4.59c-.52-.57-1-1.16-1.48-1.78s-1-1.2-1.48-1.82-.94-1.26-1.38-1.92l-.24-.46v-.44c8.56,2,25.83,4.31,35.42-7.4A3.58,3.58,0,0,1,171.76,240.19Z"/><path class="cls-54" d="M186.18,201.78c-1.26,1-3.19.63-4.48-.33a17.27,17.27,0,0,1-3.13-3.67,25,25,0,0,0-12.17-8.18,46.09,46.09,0,0,0-14.69-1.92,40.9,40.9,0,0,0-13.2,2,20.73,20.73,0,0,0-10.57,7.83A67,67,0,0,0,124.6,204a24.9,24.9,0,0,1-4.29,5.61,14.43,14.43,0,0,0,4.75-1.1,18.16,18.16,0,0,0-4.28,12.58c.14,2.69.71,5.41.33,8.11s-1.87,4.63-2.82,7c-.88,2.15-1.08,4.93.62,6.53,1,1,2.45,1.25,3.7,1.85,2.84,1.37,2.83,4.88.64,6.89-1.58,1.46-3.62,2.56-4.57,4.49-1.59,3.24.94,7.33,4.33,8.57s7.17.37,10.56-.87c-1.52-.22-1.75-2.56-.68-3.67s2.52-1.32,3.86-1.65c2-.48,4.32-1.68,3.77-4.17s-3.82-3.36-4.2-6a4.63,4.63,0,0,1,1.16-3.36c1.14-1.49,2.74-2.9,3.05-4.85.56-3.51-2-6.67-3-10.08-1.24-4.33.73-7.63,1.92-11.64a29,29,0,0,1,1.28-4.35c1.19-2.48,3.73-4,6.13-5.33l-6.16,6.15a59.71,59.71,0,0,0,13.19-5.47,21.11,21.11,0,0,1-3.76,7.48,73.09,73.09,0,0,0,10.56-7.86,12.15,12.15,0,0,1-2.47,5.64,20.13,20.13,0,0,0,9.41-6.1,20.79,20.79,0,0,0,2.5,14.29,20.2,20.2,0,0,1,2.13,4,4.12,4.12,0,0,1-.74,4.2,8.21,8.21,0,0,0,3-4.72,9.5,9.5,0,0,0,1.65,7.92,12,12,0,0,1,4-10,10.35,10.35,0,0,0,2.35-2.27,6.67,6.67,0,0,0,.69-3.31,36.62,36.62,0,0,0-2.12-13A6.45,6.45,0,0,0,186.18,201.78Z"/><path class="cls-57" d="M124.31,231.79a5.58,5.58,0,0,0-1.5,4.17,5,5,0,0,0,1.89,3.56,37.23,37.23,0,0,1,4,2.83,7.27,7.27,0,0,1,2,5.15,7.13,7.13,0,0,1-2.3,5,32.94,32.94,0,0,1-4.14,2.63,4.34,4.34,0,0,0-1.39,1.41,3.16,3.16,0,0,0-.39,1.91,3.64,3.64,0,0,0,2.77,3.09,3.91,3.91,0,0,1-3.9-2.86,4.57,4.57,0,0,1,.12-2.78,5.55,5.55,0,0,1,1.67-2.21,15.78,15.78,0,0,1,2-1.46,10.46,10.46,0,0,0,1.7-1.33,5.27,5.27,0,0,0,1.49-3.5,5.16,5.16,0,0,0-1.3-3.58c-.83-1-2.32-1.72-3.59-3a6,6,0,0,1-1.82-4.94A5.48,5.48,0,0,1,124.31,231.79Z"/><path class="cls-57" d="M130.15,260.21a1.48,1.48,0,0,1-.92-.86,2.45,2.45,0,0,1-.16-1.34,3.51,3.51,0,0,1,1.57-2.22c.72-.52,1.5-.87,2.12-1.29a3.18,3.18,0,0,0,1.31-1.36,2.69,2.69,0,0,0-.06-1.74,11.26,11.26,0,0,0-.93-2,9.3,9.3,0,0,1-1-2.59,4.46,4.46,0,0,1,.55-3.12c.23-.4.45-.73.58-1a1.11,1.11,0,0,0,.15-.54.84.84,0,0,0-.25-.48c-.18-.25-.48-.51-.79-.89a8.77,8.77,0,0,1-2-5.07,12.64,12.64,0,0,1,.73-5.11,27.24,27.24,0,0,1,2.12-4.5c-.72,3.2-1.6,6.43-1,9.39a7.54,7.54,0,0,0,1.81,3.81c.23.24.54.52.88.9a3.16,3.16,0,0,1,.81,1.69,3.26,3.26,0,0,1-.36,1.82c-.22.46-.46.82-.63,1.13a2.64,2.64,0,0,0-.33.77,2.49,2.49,0,0,0,0,.82,8.34,8.34,0,0,0,.7,2,13.51,13.51,0,0,1,.92,2.48,4.31,4.31,0,0,1-.28,3.05,4.64,4.64,0,0,1-2.22,1.92c-.82.36-1.59.58-2.26.91a2.82,2.82,0,0,0-1.54,1.41A1.68,1.68,0,0,0,130.15,260.21Z"/><path class="cls-57" d="M132.78,208.8a26.26,26.26,0,0,0-2.82,3.75,18.07,18.07,0,0,0-1.86,4,19.26,19.26,0,0,0-.86,4.31,28.46,28.46,0,0,0,.06,4.69,9.47,9.47,0,0,1-1.9-4.63,11.49,11.49,0,0,1,.47-5.1,11.62,11.62,0,0,1,2.64-4.4A9.46,9.46,0,0,1,132.78,208.8Z"/><path class="cls-57" d="M155.07,198.22a53.92,53.92,0,0,0-7,3.51A39,39,0,0,0,137,211.94a53.48,53.48,0,0,0-4.14,6.61,21.38,21.38,0,0,1,2.6-7.6,25.09,25.09,0,0,1,5-6.39,25.35,25.35,0,0,1,6.82-4.44A21.23,21.23,0,0,1,155.07,198.22Z"/><path class="cls-57" d="M152.37,192.43c-2,.69-4,1.32-5.86,2.06s-3.74,1.53-5.54,2.42-3.56,1.86-5.29,2.92-3.43,2.21-5.21,3.38a19.56,19.56,0,0,1,4.12-4.86,24.41,24.41,0,0,1,5.34-3.54,24.91,24.91,0,0,1,6.07-2.08A19.49,19.49,0,0,1,152.37,192.43Z"/><path class="cls-57" d="M172.23,204.91a34.61,34.61,0,0,0-.56,4.55,22,22,0,0,0,.2,4.31,22.38,22.38,0,0,0,1.06,4.19,35.1,35.1,0,0,0,1.85,4.19,9.74,9.74,0,0,1-3.5-3.37,12.09,12.09,0,0,1-1.42-9.62A9.77,9.77,0,0,1,172.23,204.91Z"/><path class="cls-57" d="M176.88,204.53a9.48,9.48,0,0,1,2.85,3.57,12.37,12.37,0,0,1,1.2,4.47,12.58,12.58,0,0,1-.49,4.61,9.58,9.58,0,0,1-2.27,4c.21-1.52.39-2.91.46-4.3a30.24,30.24,0,0,0-.63-8.13C177.72,207.35,177.32,206,176.88,204.53Z"/><path class="cls-57" d="M175.18,207.34a10.4,10.4,0,0,1,1,2.1,15.72,15.72,0,0,1,.57,2,14.22,14.22,0,0,1,.3,2.09,9.43,9.43,0,0,1-.09,2.34,5.36,5.36,0,0,1-1.66-1.77,7.25,7.25,0,0,1-1-4.49A5.17,5.17,0,0,1,175.18,207.34Z"/><path class="cls-57" d="M156.33,194.49a14.86,14.86,0,0,1,5.43-2.19,11.26,11.26,0,0,1,6.09.49,9.32,9.32,0,0,1,2.73,1.61,7.88,7.88,0,0,1,2,2.48c.47.87.79,1.73,1.26,2.45a3.93,3.93,0,0,0,2,1.72,3.56,3.56,0,0,1-2.84-1,15.58,15.58,0,0,1-1.95-2.22,8.78,8.78,0,0,0-4-2.9,13.94,13.94,0,0,0-5.08-.85C160.13,194.11,158.28,194.34,156.33,194.49Z"/><path class="cls-57" d="M160.25,197.15a7.07,7.07,0,0,1,1,3.37,9.65,9.65,0,0,1-2.12,6.65,7.16,7.16,0,0,1-2.81,2.15c.42-1.13.85-2.11,1.22-3.09s.73-1.93,1-2.9.59-1.94.84-3Z"/><path class="cls-57" d="M163.36,195.69a7.07,7.07,0,0,1,2.6,3.09,8.93,8.93,0,0,1-.36,8.05,7,7,0,0,1-2.87,2.83,28.1,28.1,0,0,0,1.17-3.54,16.93,16.93,0,0,0,.31-6.8A28.45,28.45,0,0,0,163.36,195.69Z"/><path class="cls-57" d="M155.18,200.53a5.12,5.12,0,0,1-.26,2.36,6.85,6.85,0,0,1-2.75,3.52,5,5,0,0,1-2.23.82,9.48,9.48,0,0,1,.91-2.1,13.62,13.62,0,0,1,1.14-1.7,13.84,13.84,0,0,1,1.37-1.51A9.35,9.35,0,0,1,155.18,200.53Z"/><path class="cls-2" d="M312.11,244.47v18.16a9.83,9.83,0,0,1-10.1,9.54c-5.58,0-10.11-4.27-10.11-9.54V244.47a9.38,9.38,0,0,1,3.71-7.4,10.56,10.56,0,0,1,13.54.64A9.31,9.31,0,0,1,312.11,244.47Z"/><path class="cls-50" d="M312.11,244.47v15.35a10.42,10.42,0,0,1-6.4,2.16,9.84,9.84,0,0,1-10.1-9.55V237.07a10.56,10.56,0,0,1,13.54.64A9.31,9.31,0,0,1,312.11,244.47Z"/><path class="cls-2" d="M335.16,226.69c-1.65,5.69-6.1,7.25-10.2,8.17a37.69,37.69,0,0,1-2.11,3.37,43,43,0,0,1-6,6.87A22.78,22.78,0,0,1,304.56,252l-.41.08c-.27,0-.54.11-.82.14s-.37,0-.55,0h-.48a9.73,9.73,0,0,1-1.08,0c-.37,0-.72-.06-1.09-.11l-.46-.07-.56-.09c-.26-.06-.52-.16-.79-.23l-.4-.13a22.74,22.74,0,0,1-11.45-8.28,42.37,42.37,0,0,1-4.57-6.44,39.41,39.41,0,0,1-2.31-4.65c-4-1.37-8.21-3.43-9.2-9.26-.79-4.61.79-10.53,4.59-10.65a6.53,6.53,0,0,1,3.61,1.28A49.92,49.92,0,0,1,290.38,193a16.89,16.89,0,0,1,7.36-5.24,12,12,0,0,1,4.3-1c1,0,1.94,0,2.89.06s1.91.13,2.88.27a12.32,12.32,0,0,1,4.16,1.51,16.82,16.82,0,0,1,6.71,6,49.71,49.71,0,0,1,9.39,21.84,6.44,6.44,0,0,1,3.72-.86C335.56,216.14,336.46,222.21,335.16,226.69Z"/><g class="cls-58"><g class="cls-59"><path class="cls-2" d="M324.78,190.91a27.57,27.57,0,0,0-15.39-7.9,28.88,28.88,0,0,0-27,10.28c-4.59,5.75-4.63,19.76-4,20.32a2.79,2.79,0,0,1,.75,2.28c0,.83-.29,1.63-.39,2.46a7.17,7.17,0,0,0,1.87,5.71,7,7,0,0,0,5.56,2.17,7.4,7.4,0,0,1,.47-8,23.44,23.44,0,0,0,3.23-3.73,40,40,0,0,0,5.23-11.7,4,4,0,0,0,3.09,4.13,5.1,5.1,0,0,0,5-2,6.63,6.63,0,0,0,1.25-2.72,6.84,6.84,0,0,0,2.21,4.25,6.75,6.75,0,0,0,7,1.07,7.38,7.38,0,0,0,1.21,5.87,7.22,7.22,0,0,0,5.18,2.93,7.09,7.09,0,0,0,2.28,11.79c-1.05-2.17.51-4.7,2.2-6.42s3.74-3.51,3.84-5.93c1.28.47,3.88-.32,3.93-.74a34.53,34.53,0,0,0,.3-3.8A28.06,28.06,0,0,0,324.78,190.91Z"/></g></g><path class="cls-53" d="M331.91,225.85a.83.83,0,0,0-1.11.29l-.07.1-.05,0a2.62,2.62,0,0,1-.22.25,3,3,0,0,1-.26.24l-.09.07s0,0-.06.06a6.42,6.42,0,0,1-.56.34l-.26.13-.08,0-.17.07c-.21.07-.42.12-.63.17l-.15,0h0l-.33,0c-.21,0-.41,0-.61,0,.07-.12.14-.24.22-.35l.12-.18.09-.11.22-.27a7.53,7.53,0,0,1,.56-.57l.3-.26.14-.11.07-.06a7.58,7.58,0,0,1,1.41-.81.8.8,0,0,0,.29-1.1.81.81,0,0,0-1.1-.29,8.41,8.41,0,0,0-4.63,5.36.81.81,0,0,0,.56,1,.83.83,0,0,0,1-.56l.06-.18A5.58,5.58,0,0,0,332.2,227,.82.82,0,0,0,331.91,225.85Z"/><path class="cls-54" d="M315.09,220.25a.56.56,0,0,0-.79,0l-.14.15-.06,0,0,0-.05,0-.07.05-.17.1-.09,0-.17.06-.18.05-.1,0c-.06,0-.09,0,0,0-.11,0-.25,0-.37,0h-.17l-.1,0h0a1.7,1.7,0,0,0-1.39-1.11c-1,0-1.93,1.17-2,2.7s.67,2.8,1.7,2.84,1.92-1.17,2-2.7a3.72,3.72,0,0,0,0-.58,2.85,2.85,0,0,0,2.19-.91A.57.57,0,0,0,315.09,220.25Z"/><path class="cls-54" d="M293.66,219.2a1.85,1.85,0,0,0-1.57,1.1l-.15,0h-.57l-.15,0-.29-.1,0,0-.13-.07a1.27,1.27,0,0,1-.27-.18.56.56,0,0,0-.44-.05.51.51,0,0,0-.33.26.58.58,0,0,0,.2.77,2.79,2.79,0,0,0,1.78.53c0,.15,0,.3-.05.46-.09,1.53.67,2.8,1.7,2.83s1.92-1.16,2-2.69S294.69,219.24,293.66,219.2Z"/><path class="cls-53" d="M295.32,230.77a10.1,10.1,0,0,1,1.4-1.93,14.89,14.89,0,0,0,1.44-2.26,15.16,15.16,0,0,0,1.55-5.06.93.93,0,0,1,1.06-.7.85.85,0,0,1,.65,1A16.61,16.61,0,0,1,298,230c-.71.92-1.75,1.89-.8,3s2.63.85,3.94.73c1.13-.11,1.19,1.66.06,1.76-1.7.16-3.52.23-4.9-.86A3.15,3.15,0,0,1,295.32,230.77Z"/><path class="cls-54" d="M295.32,210.55a2,2,0,0,0-1.15-.17c-2.46.26-4.32,2.32-4.74,5.08a3,3,0,0,1,.62-1l.05,0a2.52,2.52,0,0,1,.51-.47,5.42,5.42,0,0,1,2.36-.75,8.55,8.55,0,0,0,2.44-.59,1,1,0,0,0,.68-1A1.48,1.48,0,0,0,295.32,210.55Z"/><path class="cls-54" d="M310.47,210.37a2.18,2.18,0,0,1,1.13-.36c2.46-.16,4.46,1.57,5.08,4.25a2.49,2.49,0,0,0-.69-.87l-.05,0a2.51,2.51,0,0,0-.54-.38,5.16,5.16,0,0,0-2.4-.35,7.74,7.74,0,0,1-2.47-.18.91.91,0,0,1-.75-.86A1.67,1.67,0,0,1,310.47,210.37Z"/><path class="cls-53" d="M309.15,236.76a11.09,11.09,0,0,1-10.26,2.05c-1-.31-1.43,1.26-.43,1.57a12.79,12.79,0,0,0,11.84-2.47C311.1,237.24,309.94,236.09,309.15,236.76Z"/><path class="cls-12" d="M327.1,187.76a30.29,30.29,0,0,0-17-8.72,31.85,31.85,0,0,0-29.76,11.33c-5.06,6.34-6.28,14.71-6.82,22.57a1.63,1.63,0,0,1,2.39-.16,3.12,3.12,0,0,1,.83,2.52c0,.91-.32,1.8-.43,2.7a7.87,7.87,0,0,0,2.06,6.3,7.77,7.77,0,0,0,6.13,2.4,8.16,8.16,0,0,1,.52-8.81,26.4,26.4,0,0,0,3.56-4.12,44.05,44.05,0,0,0,5.76-12.9,4.39,4.39,0,0,0,3.41,4.55,5.67,5.67,0,0,0,5.49-2.15,7.47,7.47,0,0,0,1.37-3,7.56,7.56,0,0,0,2.43,4.68,7.47,7.47,0,0,0,7.76,1.18,8.12,8.12,0,0,0,1.33,6.47,8,8,0,0,0,5.71,3.23,7.82,7.82,0,0,0,2.52,13c-1.16-2.4.56-5.19,2.43-7.08s4.11-3.88,4.22-6.54a9.57,9.57,0,0,1,3.74,2.49c-.18-.2.54-2.85.6-3.31a36.77,36.77,0,0,0,.33-4.19A30.91,30.91,0,0,0,327.1,187.76Z"/><g class="cls-13"><g class="cls-14"><path class="cls-15" d="M301.87,186.76a26.83,26.83,0,0,0-9.52,4.77,13.52,13.52,0,0,0-3.37,3.55,4.15,4.15,0,0,0-.59,1.86,5.61,5.61,0,0,0,.46,2.06,12.45,12.45,0,0,1,.76,3.05,8.45,8.45,0,0,1-.47,3.31,15,15,0,0,1-3.25,5,25.31,25.31,0,0,0-3.3,4.11,6.73,6.73,0,0,0-1,5,5.09,5.09,0,0,1-.89-2.72,8.84,8.84,0,0,1,.41-2.93,14.45,14.45,0,0,1,1.23-2.68c.48-.84,1-1.61,1.53-2.36a15.77,15.77,0,0,0,2.33-4.39,5.58,5.58,0,0,0,.2-2.12,9.58,9.58,0,0,0-.63-2.26,8.33,8.33,0,0,1-.58-3.3,6.88,6.88,0,0,1,1.18-3.3,10.53,10.53,0,0,1,2.12-2.32,16.89,16.89,0,0,1,2.4-1.7A18.52,18.52,0,0,1,301.87,186.76Z"/></g><g class="cls-14"><path class="cls-15" d="M305.39,186.94a5.8,5.8,0,0,1,1.54,3.55,7.71,7.71,0,0,1-3.21,6.95,5.74,5.74,0,0,1-3.71,1.12c.74-1.1,1.36-2,1.9-2.9a28,28,0,0,0,1.4-2.62,24.56,24.56,0,0,0,1.09-2.77C304.74,189.27,305,188.22,305.39,186.94Z"/></g><g class="cls-14"><path class="cls-15" d="M310.57,185.45a8.46,8.46,0,0,1,4.2,1.69,8.34,8.34,0,0,1,2.82,3.85,6.83,6.83,0,0,1-.1,5,4.68,4.68,0,0,1-3.66,2.93,7.2,7.2,0,0,0,1.21-3.62,8.31,8.31,0,0,0-.5-3.23,14.69,14.69,0,0,0-1.6-3.16C312.25,187.82,311.41,186.75,310.57,185.45Z"/></g><g class="cls-14"><path class="cls-15" d="M320.67,194.9a15.11,15.11,0,0,0-1.12,4.35,10.82,10.82,0,0,0,.3,3.88,11.08,11.08,0,0,0,1.69,3.5,15.26,15.26,0,0,0,3.15,3.19,6.56,6.56,0,0,1-4.92-1.37,8.28,8.28,0,0,1-2.66-9.88A6.68,6.68,0,0,1,320.67,194.9Z"/></g><g class="cls-14"><path class="cls-15" d="M322,200.19a10.13,10.13,0,0,1,5.72,3.41,10.33,10.33,0,0,1,2.46,6.63,9.57,9.57,0,0,1-.69,3.61,11.17,11.17,0,0,1-1.87,3c-1.38,1.69-2.89,2.86-3.65,4.94a5.65,5.65,0,0,1,.2-3.37,21.57,21.57,0,0,1,1.33-3,13.75,13.75,0,0,0,1.1-2.58,8.91,8.91,0,0,0,.35-2.57,11.37,11.37,0,0,0-1.32-5.2A20.67,20.67,0,0,0,322,200.19Z"/></g><g class="cls-14"><path class="cls-15" d="M297.31,182.72c-2.48,1.65-4.95,3.11-7.18,4.78a28.15,28.15,0,0,0-5.85,5.61,21.92,21.92,0,0,0-3.47,7.19c-.81,2.66-1.32,5.52-2.15,8.37a30,30,0,0,1-.34-8.89,19.79,19.79,0,0,1,1.09-4.48,16.93,16.93,0,0,1,2.29-4.14,20.58,20.58,0,0,1,7.1-5.82A26.93,26.93,0,0,1,297.31,182.72Z"/></g></g><path class="cls-54" d="M322,234.33v6c-.44.62-.89,1.23-1.36,1.84a44.06,44.06,0,0,1-4.62,5,22.87,22.87,0,0,1-12.31,6.94l-.42.07c-.27,0-.54.11-.81.15s-.38,0-.56,0l-.48,0c-.35,0-.72,0-1.08,0l-1.08-.11-.47-.08c-.18,0-.37,0-.55-.09s-.53-.16-.8-.23l-.4-.12a22.74,22.74,0,0,1-11.45-8.29,40.36,40.36,0,0,1-3-3.87c-.56-.84-1.11-1.69-1.61-2.57v-4.88a3.37,3.37,0,0,1,2.64-3.29c11.25-2.54,23.19-2.1,35.53.12A3.38,3.38,0,0,1,322,234.33Z"/><path class="cls-54" d="M277.3,215.84c1.36,6.84,2.82,13.95,7,19.71.31.41,1,0,.7-.41-4.12-5.71-5.56-12.74-6.9-19.51-.11-.51-.88-.29-.78.21Z"/><path class="cls-54" d="M326.75,217.49c-2.19,6.5-4.5,13.27-9.3,18.37-.36.38.21.95.57.57,4.9-5.2,7.27-12.09,9.51-18.73.17-.49-.61-.71-.78-.21Z"/><path class="cls-31" d="M320.68,236.13v6.08a44.06,44.06,0,0,1-4.62,5c-.4.42-.82.83-1.24,1.21a22.26,22.26,0,0,1-11.07,5.73l-.42.07c-.27,0-.54.11-.81.15s-.38,0-.56,0l-.48,0c-.35,0-.72,0-1.08,0l-1.08-.11-.47-.08c-.18,0-.37,0-.55-.09l-.16,0-.64-.19-.4-.12a20.12,20.12,0,0,1-4-1.7,23.1,23.1,0,0,1-5.93-4.75c-.54-.59-1-1.2-1.53-1.84s-1-1.24-1.54-1.89-1-1.3-1.42-2c-.09-.16-.17-.32-.25-.48V236a3.51,3.51,0,0,1,2.47-3.49c1.27-.33,2.55-.61,3.85-.84s2.66-.45,4-.6c2.11-.24,4.23-.37,6.39-.4h0c1.16,0,2.31,0,3.48,0h0a86,86,0,0,1,8.95.81c1.57.22,3.14.48,4.72.79.58.1,1.16.21,1.74.34a2.15,2.15,0,0,1,.7.24,2.37,2.37,0,0,1,.35.19A3.71,3.71,0,0,1,320.68,236.13Z"/><path class="cls-60" d="M288.71,244.89a2.41,2.41,0,0,1-.81,1.82l-.72.63c-.54-.59-1-1.2-1.53-1.84s-1-1.24-1.54-1.89l.6-.53a2.4,2.4,0,0,1,4,1.81Z"/><path class="cls-61" d="M303.32,232.31a2.45,2.45,0,0,1-.83,1.82l-9.38,8.23a2.41,2.41,0,0,1-4-1.81,2.43,2.43,0,0,1,.82-1.82l9.23-8.1h0c1.16,0,2.31,0,3.48,0h0l.06.07A2.4,2.4,0,0,1,303.32,232.31Z"/><path class="cls-55" d="M293.52,232.77a2.43,2.43,0,0,1-.83,1.82l-6.93,6.09a2.4,2.4,0,0,1-3.32-.14v-3.36l.14-.13,6.18-5.42c1.32-.26,2.66-.45,4-.6l.15.16A2.42,2.42,0,0,1,293.52,232.77Z"/><path class="cls-62" d="M302.44,242.86l-6.94,6.08a2.42,2.42,0,0,1-3.41-.22h0a2.42,2.42,0,0,1,.23-3.41l6.93-6.08a2.42,2.42,0,0,1,3.41.22h0A2.42,2.42,0,0,1,302.44,242.86Z"/><path class="cls-55" d="M310.74,246.58l-6.93,6.08a2.42,2.42,0,0,1-3.41-.22h0a2.42,2.42,0,0,1,.22-3.41l6.94-6.08a2.41,2.41,0,0,1,3.4.22h0A2.42,2.42,0,0,1,310.74,246.58Z"/><path class="cls-62" d="M320.68,236.13v2L316,242.23a2.41,2.41,0,1,1-3.18-3.63l6.34-5.57A3.71,3.71,0,0,1,320.68,236.13Z"/><path class="cls-60" d="M316.36,232.64a2.42,2.42,0,0,1-.82,1.82l-6.93,6.08a2.42,2.42,0,0,1-3.41-.21,2.43,2.43,0,0,1,.22-3.42l6.19-5.44c1.57.22,3.14.48,4.72.79A2.43,2.43,0,0,1,316.36,232.64Z"/><path class="cls-55" d="M320.68,240.34v1.87a44.06,44.06,0,0,1-4.62,5c-.4.42-.82.83-1.24,1.21a2.45,2.45,0,0,1,.34-3.26Z"/><path class="cls-61" d="M299.2,252.07a2.4,2.4,0,0,1-.82,1.82l-.24.21-.64-.19-.4-.12a20.12,20.12,0,0,1-4-1.7l2.09-1.83a2.42,2.42,0,0,1,3.4.23A2.37,2.37,0,0,1,299.2,252.07Z"/><path class="cls-56" d="M320.68,236.13v6.08a44.06,44.06,0,0,1-4.62,5c-.4.42-.82.83-1.24,1.21a22.26,22.26,0,0,1-11.07,5.73l-.42.07c-.27,0-.54.11-.81.15s-.38,0-.56,0l-.48,0c-.35,0-.72,0-1.08,0l-1.08-.11-.47-.08c-.18,0-.37,0-.55-.09l-.16,0-.64-.19-.4-.12a20.12,20.12,0,0,1-4-1.7,23.1,23.1,0,0,1-5.93-4.75c-.54-.59-1-1.2-1.53-1.84s-1-1.24-1.54-1.89-1-1.3-1.42-2c-.09-.16-.17-.32-.25-.48V241c6.95,1.94,27,6.13,36.33-8.18a2.37,2.37,0,0,1,.35.19A3.71,3.71,0,0,1,320.68,236.13Z"/><path class="cls-53" d="M271.55,223.06a.83.83,0,0,1,1.11.29s0,.06.07.09l0,.06a2.5,2.5,0,0,0,.22.24,3.07,3.07,0,0,0,.26.25l.08.07.07.05a4,4,0,0,0,.56.35l.26.13.07,0,.18.06a4.54,4.54,0,0,0,.63.18l.14,0h0l.33,0a4.19,4.19,0,0,0,.61,0l-.22-.35a1.09,1.09,0,0,0-.13-.17l-.08-.12a2.75,2.75,0,0,1-.22-.26c-.18-.2-.37-.39-.56-.57l-.3-.26-.14-.12-.07,0a7.66,7.66,0,0,0-1.42-.81.82.82,0,0,1-.29-1.11.84.84,0,0,1,1.11-.29,8.43,8.43,0,0,1,4.63,5.37.81.81,0,0,1-1.56.43l-.06-.18a5.58,5.58,0,0,1-5.66-2.24A.81.81,0,0,1,271.55,223.06Z"/><path class="cls-15" d="M236,264.38v.07a29.78,29.78,0,0,1-.79,5c-1.4,6.19-4.24,8.48-7.76,9.14-7.9,1.49-13.52-41.14-13.52-41.14a8.28,8.28,0,0,1,8.6-7.93l6.63.28a8.29,8.29,0,0,1,7.92,8.62Z"/><path class="cls-63" d="M236,264.38l-.9-.06c-10.36-1.1-17.88-10.45-17.44-20.86l.22-5.26c.16-3.71,4-6.56,8.54-6.37l6.63.28a9.53,9.53,0,0,1,1.7.22,8.22,8.22,0,0,1,2.33,6.11Z"/><path class="cls-15" d="M258.91,226.55c-1.56,5.67-5.91,7.35-10,8.33l-.15,0c-.57,1.07-1.21,2.13-1.9,3.17-.43.66-.89,1.3-1.37,1.92a42.41,42.41,0,0,1-4.69,5.31,23,23,0,0,1-12.27,7.16l-.42.07c-.29,0-.55.12-.83.16s-.37,0-.55,0a3.54,3.54,0,0,0-.47,0c-.37,0-.74,0-1.11,0a10.41,10.41,0,0,1-1.08-.11l-.47-.06c-.18,0-.37,0-.56-.08s-.53-.15-.79-.23l-.42-.11A23,23,0,0,1,210.23,244a40.59,40.59,0,0,1-3.35-4.33c-.1-.13-.19-.28-.28-.41-.5-.75-1-1.51-1.41-2.27a41.19,41.19,0,0,1-2-4l-.41-.15c-3.87-1.31-7.93-3.37-9-9-.86-4.61.64-10.59,4.46-10.75a5.58,5.58,0,0,1,2.85.76,9.16,9.16,0,0,1,.8.46l0-.11a50,50,0,0,1,11.51-20.8,17,17,0,0,1,7.31-5.38,12.23,12.23,0,0,1,4.31-1.09,28.23,28.23,0,0,1,2.91,0,25.91,25.91,0,0,1,2.89.22,12.44,12.44,0,0,1,4.2,1.45,16.9,16.9,0,0,1,6.84,6,50.22,50.22,0,0,1,9.51,20.56h0c.08.41.17.83.24,1.23l.26-.13h0a6.24,6.24,0,0,1,3.47-.78C259.16,216,260.15,222,258.91,226.55Z"/><path class="cls-64" d="M254.53,220.75a8.84,8.84,0,0,0-5.29,10.36.42.42,0,0,0,.8-.22,7.7,7.7,0,0,1-.24-2.07l0,0c1-1.16,2.73-1,4.05-1.28a.42.42,0,0,0-.22-.8c-1.22.31-2.66.25-3.74.93a7.94,7.94,0,0,1,4.84-6.11C255.23,221.35,255,220.55,254.53,220.75Z"/><path class="cls-64" d="M197.58,219.27a8.83,8.83,0,0,1,5.29,10.36.42.42,0,0,1-.8-.22,7.7,7.7,0,0,0,.24-2.07l0,0c-1-1.16-2.73-.95-4-1.28a.42.42,0,0,1,.22-.8c1.22.31,2.66.25,3.74.93a7.92,7.92,0,0,0-4.84-6.11C196.88,219.87,197.09,219.07,197.58,219.27Z"/><path class="cls-64" d="M231.94,231c-.74-3.92-1.61-7.82-2.41-11.73-.15-.71-1.29-.63-1.14.09q1,4.78,2,9.57c.26,1.26,1,3.19.3,4.4a2.67,2.67,0,0,1-3.67.6c-.65-.35-1.15.68-.5,1a4,4,0,0,0,4.15,0A3.61,3.61,0,0,0,231.94,231Z"/><path class="cls-54" d="M213.78,217.55h0a.72.72,0,0,0-.21,0,8.13,8.13,0,0,1,6.17-4.76,2.38,2.38,0,0,1,1.27.09,1,1,0,0,1,.67,1c-.06.47-.51.78-.95,1a12.82,12.82,0,0,1-2.87.71,8.74,8.74,0,0,0-2.81.86A3.78,3.78,0,0,0,213.78,217.55Z"/><path class="cls-54" d="M235.27,212.84a2.42,2.42,0,0,1,1.28,0,8.08,8.08,0,0,1,5.92,5.55,3.94,3.94,0,0,0-.81-1l-.07,0a3.42,3.42,0,0,0-.62-.52,8.63,8.63,0,0,0-2.74-1.06,12.31,12.31,0,0,1-2.81-.91,1.38,1.38,0,0,1-.88-1A1,1,0,0,1,235.27,212.84Z"/><path class="cls-64" d="M220,235.37a10.54,10.54,0,0,0,9.61,2.6.78.78,0,0,1,.31,1.52,12.15,12.15,0,0,1-11.08-3.1C218.14,235.7,219.3,234.69,220,235.37Z"/><path class="cls-54" d="M217.42,222c0,1.42.82,2.59,1.8,2.6S221,223.45,221,222s-.82-2.59-1.8-2.61S217.41,220.55,217.42,222Z"/><path class="cls-54" d="M235,222.91c0,1.43.82,2.59,1.8,2.6s1.76-1.13,1.75-2.56-.82-2.59-1.8-2.61S235,221.48,235,222.91Z"/><path class="cls-54" d="M246.88,238.09c-.43.66-.89,1.3-1.37,1.92a42.41,42.41,0,0,1-4.69,5.31,23,23,0,0,1-12.27,7.16l-.42.07c-.29,0-.55.12-.83.16s-.37,0-.55,0a3.54,3.54,0,0,0-.47,0c-.37,0-.74,0-1.11,0a10.41,10.41,0,0,1-1.08-.11l-.47-.06c-.18,0-.37,0-.56-.08s-.53-.15-.79-.23l-.42-.11A23,23,0,0,1,210.23,244a40.59,40.59,0,0,1-3.35-4.33c-.1-.13-.19-.28-.28-.41-.5-.75-1-1.51-1.41-2.27l-.05-4.33a3.41,3.41,0,0,1,.94-2.4,2.89,2.89,0,0,1,.66-.54,3.58,3.58,0,0,1,1-.44c11.42-2.73,23.56-2.43,36.15-.33a3.4,3.4,0,0,1,1.47.62,2.54,2.54,0,0,1,.6.58,3.33,3.33,0,0,1,.8,2.15Z"/><path class="cls-54" d="M201.05,214.1c1.47,6.93,3,14.14,7.36,20,.32.42,1,0,.71-.42-4.27-5.76-5.82-12.89-7.28-19.76-.11-.52-.9-.29-.79.23Z"/><path class="cls-54" d="M251.39,215.14c-2.15,6.64-4.42,13.56-9.23,18.81-.36.39.23,1,.59.57,4.91-5.36,7.24-12.39,9.43-19.17.17-.51-.63-.71-.79-.21Z"/><path class="cls-61" d="M245.51,240a42.41,42.41,0,0,1-4.69,5.31,23,23,0,0,1-12.27,7.16l-.42.07c-.29,0-.55.12-.83.16s-.37,0-.55,0a3.54,3.54,0,0,0-.47,0c-.37,0-.74,0-1.11,0a10.41,10.41,0,0,1-1.08-.11l-.47-.06c-.18,0-.37,0-.56-.08s-.53-.15-.79-.23l-.42-.11A23,23,0,0,1,210.23,244a40.59,40.59,0,0,1-3.35-4.33c-.1-.13-.19-.28-.28-.41l0-4v-.76a4,4,0,0,1,.65-2.25,3,3,0,0,1,.57-.65,3.07,3.07,0,0,1,1.25-.69c1.28-.35,2.59-.65,3.9-.9l1.38-.26a5.25,5.25,0,0,1,.55-.09c.71-.12,1.42-.22,2.14-.32,2.15-.26,4.31-.42,6.5-.48h0c.22,0,.42,0,.64,0s.42,0,.63,0c.76,0,1.52,0,2.28,0h0c1.24,0,2.49.09,3.74.18.3,0,.6,0,.9.06,1.49.12,3,.27,4.48.47l.88.11c.22,0,.43.07.65.09,1.08.16,2.18.33,3.27.54.6.1,1.18.2,1.78.32a2.21,2.21,0,0,1,.71.24,2.47,2.47,0,0,1,.36.19,2.64,2.64,0,0,1,.41.32,3.38,3.38,0,0,1,.55.64,3.76,3.76,0,0,1,.52,1.15,2.13,2.13,0,0,1,.11.57,2.27,2.27,0,0,1,0,.45Z"/><path class="cls-65" d="M252.84,214.32a4.52,4.52,0,0,1-.12,3.33,3.43,3.43,0,0,1-.73,1,4,4,0,0,1-.19,1,6.78,6.78,0,0,1-1.29,2.34,4.42,4.42,0,0,1-.79,1.75,3.66,3.66,0,0,1-1.8,1.32h-.1a2.07,2.07,0,0,1-1.46,1.61l-.17.16v-.13h0c-.92.05-.12-.83-.13-1.75a4.15,4.15,0,0,1,.47-1.79,2.74,2.74,0,0,1-.1-2.18,2.45,2.45,0,0,1-.31-.41,3.28,3.28,0,0,1,0-3l.05-.07a2.23,2.23,0,0,1-.33-.58,3.75,3.75,0,0,1,0-2.58c-.84-.36-1.17-2.79-.15-3.45,0,0-.18-.14-.22-.18-.79-.76-1.15-3-.27-4a11.18,11.18,0,0,1-3.18-.38,2.43,2.43,0,0,1-.81-.65l-.45.09a8.27,8.27,0,0,1-2,0,3.25,3.25,0,0,1-2-.67,5.59,5.59,0,0,1-4.68-.06l-.3.17a4.42,4.42,0,0,1-4.34-.19,1.92,1.92,0,0,1-.36-.34,4.68,4.68,0,0,1-.48.18,5.81,5.81,0,0,1-3.88-.16,3.28,3.28,0,0,1-.79-.45,4,4,0,0,1-2,.71,3.89,3.89,0,0,1-2.88-1,5.93,5.93,0,0,1-3.07,1.67,5.45,5.45,0,0,1-3.4-.08c.87,1.24.38,4.85-1.79,5.9a5.29,5.29,0,0,1-.06,2.17,4.91,4.91,0,0,1-.46,1.17,4.32,4.32,0,0,1,.46,2.38,4.6,4.6,0,0,1-.86,2.27,3.55,3.55,0,0,1,.67,2.42,3.74,3.74,0,0,1-.79,1.92,2.38,2.38,0,0,1,.68,1.44,2.45,2.45,0,0,1-1.28,2.4c-.8.41.26.34-.45-.25a3.17,3.17,0,0,1-1.12-2.54,1.53,1.53,0,0,1,0-.3A2.38,2.38,0,0,1,205,224a2.58,2.58,0,0,1-.31-1.17,3,3,0,0,1-.73-.85,4.16,4.16,0,0,1-.39-.91l-.14-.06a2.87,2.87,0,0,1-1.41-2.83,3.29,3.29,0,0,1,.42-1.21,2.59,2.59,0,0,1-1-1.81,3.46,3.46,0,0,1,.46-2,3.52,3.52,0,0,1-.18-.4,5.14,5.14,0,0,1-.45-3.06,2.22,2.22,0,0,1,.64-1.1l-.21-.23a5,5,0,0,1-1-2.26,3.4,3.4,0,0,1,.44-2.5,2,2,0,0,1,.65-.58,5.94,5.94,0,0,1-.08-.75,3.46,3.46,0,0,1,.82-2.4,1.8,1.8,0,0,1,.69-.52,4.58,4.58,0,0,1,0-2.88,2.88,2.88,0,0,1,1.08-1.49c0-.18,0-.37,0-.54a3.8,3.8,0,0,1,1.25-2.52,2.51,2.51,0,0,1,1-.5,6.13,6.13,0,0,1,2.45-3.47,4.37,4.37,0,0,1,2.6-2.26l.29,0a10.52,10.52,0,0,1,.84-.91,6.58,6.58,0,0,1,2-1.54,3.06,3.06,0,0,1,1.49-.23,6.93,6.93,0,0,1,.72-.48,6.59,6.59,0,0,1,2.42-1.05,3.15,3.15,0,0,1,.92,0,6.39,6.39,0,0,1,.58-.38,5.14,5.14,0,0,1,4.76-.19l.24.13a4.55,4.55,0,0,1,.67-.25,4.85,4.85,0,0,1,2.76-.25l.33.11a2.53,2.53,0,0,1,.72-.08,6.77,6.77,0,0,1,2.41.59,4.23,4.23,0,0,1,1,.58,2.76,2.76,0,0,1,1-.05,3.43,3.43,0,0,1,2.45,1.56,2.23,2.23,0,0,1,.9-.3,2.3,2.3,0,0,1,2.51,1.67,2.6,2.6,0,0,1,1.32.17,2.79,2.79,0,0,1,1.58,1.66c0,.05,0,.09,0,.13a6.21,6.21,0,0,1,1.88.79,3.18,3.18,0,0,1,1.63,2.3.17.17,0,0,0,0,.07,3.34,3.34,0,0,1,1.36,1,4.08,4.08,0,0,1,.76,2.64,4.19,4.19,0,0,1,1.37,1,3.88,3.88,0,0,1,1,2.58,2.77,2.77,0,0,1-.28,1.22,2.73,2.73,0,0,1,.69.88c.21.45-.25,1.42-.29,1.9a2.69,2.69,0,0,1,1,1.05c.58,1.88.12,2.31-.47,3.89.09.12-.07.28,0,.41.52.87,1,1.21.9,2.27a2.72,2.72,0,0,1-.93,1.86C253,211.2,253.56,213.46,252.84,214.32Z"/><g class="cls-14"><path class="cls-54" d="M227.32,191.69a2.2,2.2,0,0,1,2.75-1.71,2.23,2.23,0,0,1,1.32,2.75.41.41,0,0,0,.78.26,1.88,1.88,0,1,1,3.33,1.72.41.41,0,0,0,.69.45,3.56,3.56,0,0,1,3.62-1.85,1.91,1.91,0,0,1,1.22,3c-.34.41.35.86.69.46a2.71,2.71,0,0,0-1.36-4.17c-1.93-.69-3.82.51-4.86,2.09l.69.45a2.7,2.7,0,1,0-4.8-2.43l.78.26a2.93,2.93,0,1,0-5.67-1.35c-.09.53.74.57.82.05Z"/></g><g class="cls-14"><path class="cls-54" d="M244.12,200.23a3.52,3.52,0,0,1,2.6-.22c.64.3,1.08,1.31.24,1.7-.49.22-.1.91.38.73a1.27,1.27,0,0,1,1,2.34.42.42,0,0,0,0,.71,6.7,6.7,0,0,1,2.09,2.57,3.78,3.78,0,0,1,.42,1.77c-.05.56-.48,1.26-1.15,1.08-.51-.13-.77.65-.26.78a1.69,1.69,0,0,0,1.82-.65,2.68,2.68,0,0,0,.27-2.34,7.22,7.22,0,0,0-2.74-3.9c0,.24,0,.48,0,.71a2.09,2.09,0,0,0-1.74-3.8c.13.24.26.48.38.73a1.69,1.69,0,0,0,.4-2.69c-1-1.07-2.57-.75-3.8-.33-.49.18-.32,1,.18.81Z"/></g><g class="cls-14"><path class="cls-54" d="M205.16,201.66a3.47,3.47,0,0,0-1.48,6.23l0-.71a3.35,3.35,0,0,0-.1,5.84c0-.22,0-.43-.05-.65a3.58,3.58,0,0,0,1.42,6.26c.51.12.77-.66.26-.79a2.78,2.78,0,0,1-1.13-4.86.41.41,0,0,0-.05-.65,2.51,2.51,0,0,1,0-4.42.42.42,0,0,0,0-.71,2.68,2.68,0,0,1,1.2-4.74c.53-.09.35-.9-.17-.8Z"/></g><g class="cls-14"><path class="cls-54" d="M212.56,204.38a1.43,1.43,0,1,1,2.35-1.46l.81-.18a1.76,1.76,0,0,1,.6-2.26c.71-.37,1.67.2,1.32,1l.8.15c.12-1.19.25-2.56,1.23-3.4a1.65,1.65,0,0,1,1.48-.41,1.15,1.15,0,0,1,.84,1.31l.8.15a1.84,1.84,0,1,1,3.61.4c-.1.52.73.55.82,0a2.65,2.65,0,1,0-5.25-.48c0,.44.67.62.8.15a2,2,0,0,0-2.81-2.28c-1.82.7-2.17,2.77-2.34,4.48-.05.49.63.56.8.15a1.7,1.7,0,0,0-2-2.22,2.47,2.47,0,0,0-1.53,3.36c.17.49,1,.33.81-.18a2.26,2.26,0,1,0-3.77,2.19c.36.38,1-.16.61-.55Z"/></g><g class="cls-14"><path class="cls-54" d="M227.91,200.18a2.27,2.27,0,0,0,4.52-.31l-.81.06a2.72,2.72,0,0,0,5.29,0l-.8,0a1.84,1.84,0,1,0,3.63-.59c-.08-.52-.89-.35-.8.18a1,1,0,1,1-2,.23.42.42,0,0,0-.8,0,1.89,1.89,0,0,1-3.69,0c-.12-.43-.81-.42-.82.06a1.45,1.45,0,0,1-2.89.18c-.08-.52-.88-.35-.81.18Z"/></g><g class="cls-14"><path class="cls-54" d="M227.38,185.14a6.3,6.3,0,0,1,3.37-.75,2.56,2.56,0,0,1,2.16,1.66.42.42,0,0,0,.75.14,2.26,2.26,0,0,1,4,1.15c.07.49.75.36.81-.06.12-.84,1.18-.61,1.6-.2a3.77,3.77,0,0,1,.86,1.77c.15.51.95.34.8-.17-.31-1.07-.73-2.27-1.87-2.69a1.62,1.62,0,0,0-2.21,1.24l.81-.06a3,3,0,0,0-5.46-1.43l.75.13a3.32,3.32,0,0,0-2.54-2.23,6.72,6.72,0,0,0-4.18.77c-.48.22-.11,1,.38.73Z"/></g><g class="cls-14"><path class="cls-54" d="M207.33,197.16a1.78,1.78,0,0,1,2.86-2.11.41.41,0,0,0,.67-.46,2.55,2.55,0,0,1,.3-2.88,1.45,1.45,0,0,1,2.15.2.42.42,0,0,0,.77-.28,3.31,3.31,0,0,1,1-3.44,1.53,1.53,0,0,1,2.47.88c.07.52.87.35.8-.18a2.32,2.32,0,0,0-3.37-1.6c-1.68.84-2,2.84-1.68,4.52l.76-.28a2.24,2.24,0,0,0-3.24-.57c-1.27.9-1.24,2.71-.67,4l.67-.46a2.61,2.61,0,0,0-4.2,3,.41.41,0,0,0,.73-.38Z"/></g><path class="cls-31" d="M215.31,240a3.73,3.73,0,0,1-.55-1,4.18,4.18,0,0,1-.22-1.05c0-.37-.2-1.27.34-1.35l-.15-.06a2.36,2.36,0,0,1,.41,1.59c0,.14.17.15.24.06s.53-.64.76-.39a.51.51,0,0,1,.07.42,2.07,2.07,0,0,1-.24.67,11.74,11.74,0,0,1-1.7,2.15c-.11.12.07.3.18.18a7.71,7.71,0,0,0,2-2.8c.07-.31.09-.79-.28-.91s-.78.27-1,.56l.23.06a2.63,2.63,0,0,0-.44-1.72.13.13,0,0,0-.14-.05c-.67.1-.58,1-.53,1.5a5.26,5.26,0,0,0,.2,1.12,4.13,4.13,0,0,0,.61,1.11c.09.13.31,0,.22-.12Z"/><path class="cls-31" d="M224.35,241.38a4.1,4.1,0,0,1-2-1,1.36,1.36,0,0,1-.5-.86.65.65,0,0,1,.49-.69.74.74,0,0,1,.82.46.13.13,0,0,0,.23,0c.21-.3.77-.78,1.15-.45a1,1,0,0,1,.2.81,2.45,2.45,0,0,1-.4,1,2.37,2.37,0,0,0-.37,1.17.13.13,0,0,0,.25,0,2.6,2.6,0,0,1,.43-1.22,2.33,2.33,0,0,0,.35-1.2,1.06,1.06,0,0,0-.32-.81.73.73,0,0,0-.7-.1,1.58,1.58,0,0,0-.81.63l.23,0a1,1,0,0,0-.85-.66.85.85,0,0,0-.86.5c-.39.89.56,1.65,1.23,2a4.32,4.32,0,0,0,1.35.55c.16,0,.23-.22.07-.25Z"/><path class="cls-31" d="M234.8,244.45a3.21,3.21,0,0,1,.35-1.83c.14-.22.42-.51.71-.47s.27.44.22.65a.12.12,0,0,0,.15.15,5.18,5.18,0,0,0,.53-.14.56.56,0,0,1,.49.05c.27.26,0,.5-.25.63-.58.31-1.27.19-1.87.41a1.28,1.28,0,0,0-.8.74c-.06.15.18.21.24.07.32-.75,1.3-.69,2-.8a1.7,1.7,0,0,0,.86-.39.55.55,0,0,0,0-.85c-.34-.32-.86,0-1.24,0l.15.15a.79.79,0,0,0-.25-.9.86.86,0,0,0-.94.28,3,3,0,0,0-.58,2.21.13.13,0,0,0,.25,0Z"/><path class="cls-31" d="M221.37,230.56a1.14,1.14,0,0,0-.18-.44.69.69,0,0,0-.24-.18l-.11-.05-.1,0a1.35,1.35,0,0,0-.72.07,2.55,2.55,0,0,0-1,.63,3.47,3.47,0,0,0-.3.37l-.12.18a1.7,1.7,0,0,0,0-.22,2.15,2.15,0,0,0-.13-.32,1.7,1.7,0,0,0-.19-.35,2,2,0,0,0-.24-.26,1.17,1.17,0,0,0-.36-.21,1.49,1.49,0,0,0-.36-.05.84.84,0,0,0-.35.07.82.82,0,0,0-.2.12.68.68,0,0,0-.2.18,1.36,1.36,0,0,0-.23.41,1.79,1.79,0,0,0-.09.46,1.54,1.54,0,0,0,.05.43,1.4,1.4,0,0,0,.16.38,1.61,1.61,0,0,0,.24.34,3.83,3.83,0,0,0,.29.28l.33.26.3.27a2.75,2.75,0,0,1,.48.64l.12.29a.54.54,0,0,0,0,.37.16.16,0,0,0,.09.12.23.23,0,0,0,.21-.11,1.73,1.73,0,0,0,.16-.3l.14-.25a3.36,3.36,0,0,1,.34-.41,6.41,6.41,0,0,1,.79-.58,8.5,8.5,0,0,0,.8-.66,2.42,2.42,0,0,0,.37-.42A1.41,1.41,0,0,0,221.37,230.56Zm-.38.59c-.05.07-.11.13-.17.2a6.16,6.16,0,0,1-.75.6c-.27.2-.56.36-.82.58a3.58,3.58,0,0,0-.65.75l-.14.19,0,0-.06-.16a1.38,1.38,0,0,0-.18-.34,2.09,2.09,0,0,0-.23-.29,2.68,2.68,0,0,0-.3-.28c-.18-.16-.38-.29-.57-.44a1.72,1.72,0,0,1-.27-.27,1.6,1.6,0,0,1-.22-.31c0-.06,0-.11-.07-.17a1,1,0,0,1,0-.17c0-.07,0-.15,0-.22s0-.08,0-.11a.56.56,0,0,1,0-.12.47.47,0,0,1,.05-.1l.06-.07a.94.94,0,0,1,.12-.09.84.84,0,0,1,.31-.08,1.28,1.28,0,0,1,.62.24,1.88,1.88,0,0,1,.34.35c.05.06.09.14.14.21l.1.17c.06.15.08.3.13.44a.05.05,0,0,0,0,0c0,.05,0,.11.06.13a.1.1,0,0,0,.09,0,.34.34,0,0,0,.11-.18s0-.09,0-.13l.1-.17.24-.31.25-.21a2,2,0,0,1,.31-.2,1.66,1.66,0,0,1,.75-.21l.22,0a.8.8,0,0,1,.27.12.12.12,0,0,1,0,.05.44.44,0,0,1,.08.11l.05.17V231s0,0,0,.07l0,0Z"/><path class="cls-31" d="M228,233.28a.75.75,0,0,0,.15-.24.46.46,0,0,0-.06-.49l0,0a.62.62,0,0,0-.16-.1.65.65,0,0,0-.2-.05h-.24a.69.69,0,0,0-.24.05l-.19.08-.26.13-.13.08a1.74,1.74,0,0,1,.11-.18,2.37,2.37,0,0,0,.19-.35c0-.07,0-.13.07-.19a1.1,1.1,0,0,0,0-.18.76.76,0,0,0,0-.15.83.83,0,0,0,0-.15.31.31,0,0,0-.05-.1l0,0-.09-.07a.44.44,0,0,0-.2,0l-.1,0-.11,0a1.32,1.32,0,0,0-.2.12.8.8,0,0,0-.17.15l-.08.08-.06.08a.78.78,0,0,0-.11.18,1.7,1.7,0,0,0-.13.4c0,.12-.05.25-.07.38l-.06.38c0,.13-.06.26-.09.39s0,.12,0,.18a.3.3,0,0,0,0,.1h0a.2.2,0,0,0-.06.09s0,.08,0,.11a.14.14,0,0,0,.11,0h0a.18.18,0,0,0,.1,0h0a2.66,2.66,0,0,1,.39-.07l.47,0c.14,0,.29,0,.43-.06a3.69,3.69,0,0,0,.45-.11l.23-.07.24-.12A1,1,0,0,0,228,233.28Zm-.19,0-.09.06-.12.06-.13,0-.43.1-.41.05-.47,0a3,3,0,0,0-.43.06l-.09,0c0-.11,0-.22,0-.33a2.25,2.25,0,0,0,.06-.36,7.14,7.14,0,0,1,.11-.79,1.21,1.21,0,0,1,.05-.18l0-.11.05-.08a.76.76,0,0,1,.08-.11l.11-.09.07-.06.07,0,.11-.05h.11a.28.28,0,0,1,.13,0,.35.35,0,0,1,.11.13.7.7,0,0,1,.05.32.68.68,0,0,1,0,.14l0,.11-.09.19-.13.22-.15.25,0,.05a1.07,1.07,0,0,0-.18.19s0,.07,0,.08h0v0s.08,0,.09,0l.14-.16.07-.11h0l.16-.11.25-.12.24-.1.14,0h.25a.51.51,0,0,1,.22.06l.07,0a.31.31,0,0,1,.09.11.57.57,0,0,1,0,.18.16.16,0,0,1,0,.1l0,.07,0,.07Z"/><path class="cls-31" d="M237.43,231.66l-.25-.22a1.83,1.83,0,0,0-.59-.22,1.54,1.54,0,0,0-.79.11l-.07,0a1.8,1.8,0,0,0-.43.29,3.56,3.56,0,0,0-.46.49,3.42,3.42,0,0,0-.54.9,5.22,5.22,0,0,0-.34,1.36,4.48,4.48,0,0,0-.15-.89,1.47,1.47,0,0,0-.53-.68,1.18,1.18,0,0,0-1.16-.13l-.05,0a1.75,1.75,0,0,0-.81,1.15,3.44,3.44,0,0,0,.19,2.34,2.36,2.36,0,0,0,.51.83,3.31,3.31,0,0,0,.84.6,11.78,11.78,0,0,0,1.19.56,13.18,13.18,0,0,0,1.24.47,5.15,5.15,0,0,0,.56.16,1.45,1.45,0,0,0,.3,0h0l-.42-.31v-.06a2.42,2.42,0,0,1,.06-.46,7.77,7.77,0,0,1,.55-1.25l.14-.25c.36-.63.72-1.26,1-1.91a4.86,4.86,0,0,0,.33-.9,3.27,3.27,0,0,0,.11-.88,2.29,2.29,0,0,0-.14-.67A1.22,1.22,0,0,0,237.43,231.66Zm-1.31,1.07,0,.25a9.39,9.39,0,0,1-.24,1.59l-.3,1.55a9.33,9.33,0,0,0-.18,1.49,3.5,3.5,0,0,0,.06.72.84.84,0,0,0,0,.12c-.27-.2-.53-.41-.78-.61s-.52-.44-.77-.66-.52-.43-.78-.65c-.1-.11-.21-.23-.3-.35a2.67,2.67,0,0,1-.14-.36,5.56,5.56,0,0,1-.2-1.21,3.66,3.66,0,0,1,.05-.57l.09-.24,0,0h.19a1.31,1.31,0,0,1,.21.08l.14.1a1.13,1.13,0,0,1,.1.13,4.34,4.34,0,0,1,.33.87c.13.45.24.9.36,1.36h0v-.21a2.17,2.17,0,0,0,.07.24h0a5.84,5.84,0,0,1,.64-2.72,2.69,2.69,0,0,1,.31-.44,2.5,2.5,0,0,1,.47-.39l.27-.12.17,0h0l.05,0h0Z"/><path class="cls-31" d="M230.72,238.83a1,1,0,0,0-.06-.18.78.78,0,0,0-.24-.27.59.59,0,0,0-.28-.1h-.22a1,1,0,0,0-.24.09.8.8,0,0,0-.21.15,1,1,0,0,0-.12.15l-.11.16a.89.89,0,0,0-.08.17h0s0,0,0,0v0h0l-.06.15v0a.64.64,0,0,0-.08-.14l-.09-.15s0-.05-.06-.08a.71.71,0,0,0-.15-.15l-.18-.1-.18-.06-.14,0a.46.46,0,0,0-.2,0,.53.53,0,0,0-.21.11.81.81,0,0,0-.18.19.94.94,0,0,0-.1.28.57.57,0,0,0,0,.18,1,1,0,0,0,0,.17s0,.06,0,.08,0,.08,0,.12a.19.19,0,0,0,0,.07.88.88,0,0,0,0,.15.87.87,0,0,0,.11.18l.06.08.12.13.13.12.47.37.14.11.13.12.13.12.07.08.14.11a.17.17,0,0,0,.1,0,.14.14,0,0,0,.09,0,.34.34,0,0,0,.06-.06,0,0,0,0,0,0,0l0-.06a.76.76,0,0,1,.08-.11,2,2,0,0,1,.17-.23l.35-.44.39-.49.16-.23.14-.25a1,1,0,0,0,.1-.36A1.21,1.21,0,0,0,230.72,238.83Zm-.36-.28h0Zm-.4-.09a.59.59,0,0,1,.19,0l.09,0a.3.3,0,0,1,.11.06l-.06,0a.11.11,0,0,0-.08,0,.17.17,0,0,0-.13-.1h0l-.07,0a.1.1,0,0,0,0,.05s0,0,0,.07v0l0,0a.14.14,0,0,0-.08-.09h-.06Zm-.24.07h0a.15.15,0,0,0,0,.09h0l0,0,0,0Zm-.35.34a.25.25,0,0,1,0,.08l0,0Zm-.25.61v0Zm-.25-.08h0Zm0-.17,0,.06h0v-.07Zm.1,1.65h0Zm-.3-2s0,0,0,0a.1.1,0,0,0,0,.07v0a.28.28,0,0,1,0-.09s0-.06,0-.09l0-.05h0Zm-.51,1.33,0,0s0,0,0,0v0l0,0h0l0,.25-.09-.07Zm0-.56a2.45,2.45,0,0,0,0,.27h0v-.27Zm.13-1,.09,0,.09,0a.14.14,0,0,0-.09,0,.24.24,0,0,0-.06.08s0,0,0,.07v-.1a.17.17,0,0,0,0-.12.15.15,0,0,0-.07,0h0v0h0Zm-.71.77v-.1c0-.05,0-.1,0-.16h0s0,.07,0,.11v.25h0v0A.17.17,0,0,1,227.67,239.47Zm.21.51a.1.1,0,0,0,0,0h0l0,.12Zm.68.54,0,0h0v0Zm1.37-.51c-.13.15-.25.31-.37.46l-.19.24,0,.06c0-.07,0-.13,0-.2v-.2a.12.12,0,0,0,.1,0,.11.11,0,0,0,.1-.06.49.49,0,0,0,0-.11v-.19h0a.1.1,0,0,0,0,.07.11.11,0,0,0,.16,0l0,0a.08.08,0,0,0,0-.05s0-.08,0-.11v-.39h0a.69.69,0,0,1,0,.13.28.28,0,0,0,.06.15l0,0H230a.1.1,0,0,0,.07-.08.63.63,0,0,0,0-.19v-.26c0,.05,0,.1,0,.13a.11.11,0,0,0,.11,0l0,0-.14.2Zm.46-.62s0,0,0-.06h0A.43.43,0,0,0,230.39,239.39Zm.15-.37a.57.57,0,0,1,0,.14.83.83,0,0,0,0-.22s0-.09,0-.13,0-.05,0-.08a.38.38,0,0,0-.05-.15v0l.07.08.06.11a.27.27,0,0,1,0,.12A.38.38,0,0,1,230.54,239Z"/><path class="cls-31" d="M224.71,244.66l-.16.06-.12.06-.15.12-.11.1c0,.06-.11.12-.16.19a3.62,3.62,0,0,0-.27.41l-.12.24-.09.23a2.25,2.25,0,0,0-.08.24,1.41,1.41,0,0,0-.06.22.5.5,0,0,0,0,.12.59.59,0,0,0,0,.13l0,.25c0,.08,0,.16,0,.24s0,.16,0,.24a2,2,0,0,0,0,.23c0,.08,0,.17,0,.26s.05.3.08.45c.06.3.12.61.19.91s.1.37.16.55.17.4.27.6a.24.24,0,0,0,.32.08.26.26,0,0,0,.11-.14.29.29,0,0,0,0-.18c-.08-.16-.17-.33-.24-.5a2.86,2.86,0,0,1-.15-.41l-.12-.45c-.07-.31-.14-.62-.2-.94l0-.24a3.59,3.59,0,0,1,0-.47c0-.09,0-.18,0-.27a1.37,1.37,0,0,0,0-.19.94.94,0,0,0,0-.16c0-.06,0-.12,0-.17a1,1,0,0,1,.05-.16.78.78,0,0,0,0-.14L224,246a2.12,2.12,0,0,1,.11-.21c.06-.11.14-.22.21-.33a2.47,2.47,0,0,1,.28-.28.6.6,0,0,1,.15-.09.2.2,0,0,1,.11,0,.14.14,0,0,1,.09,0,.19.19,0,0,1,.1,0l.08,0,.1.1a1.13,1.13,0,0,1,.12.21l0,.07a2,2,0,0,1,.08.26l0,.15,0,.11c0,.11,0,.22,0,.34v.41c0,.24,0,.48-.06.71l0,.2-.06.24a1.9,1.9,0,0,1-.14.4c-.06.15-.13.3-.2.45l-.12.25-.06.13-.06.11a.18.18,0,0,0,0,.22l.08,0a.19.19,0,0,0,.13,0,.46.46,0,0,0,.07-.07l0,0s0,0,0-.05l.06-.1.06-.13,0,0,.2-.3c.15-.21.29-.41.45-.61l.19-.24.23-.24.23-.23.21-.17.26-.17.3-.15a2.29,2.29,0,0,1,.37-.12h.22l.13,0,.08,0,0,.06,0,.06,0,.09a.92.92,0,0,1,0,.16.45.45,0,0,1,0,.16l0,.1,0,.1c0,.1-.09.19-.14.28s-.12.21-.19.31-.25.36-.39.54-.4.49-.61.73-.43.46-.65.68l-.32.32-.37.34-.35.29-.35.29-.06,0-.18.14a.05.05,0,0,0,0,.08.06.06,0,0,0,.08,0l.75-.59.34-.28.37-.34.66-.66.63-.7c.2-.24.4-.48.58-.74a3.6,3.6,0,0,0,.47-.86,1.4,1.4,0,0,0,.06-.24s0-.09,0-.14,0-.09,0-.13a.54.54,0,0,0-.17-.29.59.59,0,0,0-.27-.14.92.92,0,0,0-.33,0,2.29,2.29,0,0,0-.34.07,4.39,4.39,0,0,0-.44.21l-.19.11-.12.09-.12.09-.16.14-.18.17c-.12.11-.22.23-.33.35l-.05.07,0-.17a6.66,6.66,0,0,0,.11-1,3.49,3.49,0,0,0,0-.46,2.46,2.46,0,0,0,0-.26s0-.09,0-.13,0-.07,0-.11l0-.13a.5.5,0,0,0,0-.13,1.48,1.48,0,0,0-.1-.27.77.77,0,0,0-.1-.18.89.89,0,0,0-.21-.26l-.13-.1-.15-.06-.19,0h-.06l-.17,0Zm-1,2.09v0Zm3.07.56h0Zm-.88.88v0Zm-.69.12h0Zm-.51,3.21Z"/><path class="cls-31" d="M228.23,244.52c-.14.51-.32,1-.49,1.49l0,.06a.11.11,0,0,0,.08.14.14.14,0,0,0,.09,0,.18.18,0,0,0,.05-.07l.28-.78c.08-.24.16-.47.22-.71,0,0,0,0,0,0a.12.12,0,0,0-.09-.15h0a.12.12,0,0,0-.11.09Z"/><path class="cls-31" d="M229.46,245.18c-.11.12-.21.23-.31.36l-.29.39a.09.09,0,0,0,0,.13s.05,0,.07,0l.06,0,.22-.3a1.46,1.46,0,0,1,.16-.19,2,2,0,0,1,.19-.22.11.11,0,0,0,0-.14l-.07,0s-.05,0-.06,0Z"/><path class="cls-31" d="M230,246.26l-.08,0-.38.15-.46.2,0,0a.07.07,0,0,0,0,.05s0,0,0,0h.05l.46-.21.21-.09.23-.1s0,0,0,0,0,0,0,0,0,0,0,0h0Zm-.08,0h0Z"/><path class="cls-31" d="M216.61,247.18a2.92,2.92,0,0,0,.4.29,5.75,5.75,0,0,0,.82.42,5.07,5.07,0,0,1,.79.36,2.55,2.55,0,0,1,.38.29c.05.06.11.12.16.19a1.43,1.43,0,0,0,.2.23s.13.09.2,0a.13.13,0,0,0,.05-.11.44.44,0,0,0-.1-.32c0-.09,0-.18.05-.28a2.33,2.33,0,0,1,.3-.64,1.94,1.94,0,0,1,.21-.29c.07-.1.16-.19.23-.29a2.23,2.23,0,0,0,.2-.3,1.66,1.66,0,0,0,.15-.33,1.4,1.4,0,0,0,0-.74,1.37,1.37,0,0,0-.44-.7.82.82,0,0,0-.2-.12.76.76,0,0,0-.2-.06.69.69,0,0,0-.32,0,.81.81,0,0,0-.29.12.75.75,0,0,0-.28.25,1,1,0,0,0-.16.26,1.54,1.54,0,0,0-.1.35,1,1,0,0,0-.05.3,1.21,1.21,0,0,0,0,.19l-.14-.13a2.1,2.1,0,0,0-.33-.26,2.33,2.33,0,0,0-.94-.38,1.17,1.17,0,0,0-.64.09.2.2,0,0,0-.08,0l-.09.06a.67.67,0,0,0-.17.2.85.85,0,0,0-.07.41A1.21,1.21,0,0,0,216.61,247.18Zm0-.46,0,0s0,0,0-.06,0,0,0-.06a.92.92,0,0,1,0-.16.42.42,0,0,1,0-.1l0-.06a.66.66,0,0,1,.22-.15A.48.48,0,0,1,217,246a1.47,1.47,0,0,1,.69,0,1.54,1.54,0,0,1,.3.11l.26.14.27.22.12.13,0,.1a.35.35,0,0,0,.13.14.11.11,0,0,0,.08,0s0-.08,0-.12v0c0-.13,0-.27,0-.4l.06-.17a2,2,0,0,1,.08-.22,1.38,1.38,0,0,1,.23-.36,1,1,0,0,1,.48-.32.7.7,0,0,1,.29,0l.12,0,.07.05.06.08.06.09,0,.1a1.29,1.29,0,0,1,0,.19.76.76,0,0,1,0,.15.78.78,0,0,1,0,.16,3.05,3.05,0,0,1-.13.32,2.75,2.75,0,0,1-.19.28c-.13.16-.28.32-.41.49a3.21,3.21,0,0,0-.21.3,1.55,1.55,0,0,0-.14.29,1.35,1.35,0,0,0-.09.33l0,.15,0,0a1.07,1.07,0,0,1-.16-.14,3.37,3.37,0,0,0-.71-.53c-.26-.13-.55-.22-.82-.34a6.73,6.73,0,0,1-.76-.38l-.18-.14Z"/><path class="cls-31" d="M241.51,231.46s0,0,0,0a.06.06,0,0,0,0,0v.31a0,0,0,0,0,.05,0h0s0,0,0,0a.81.81,0,0,0,0-.16v-.07s0-.07,0-.1l0,0Z"/><path class="cls-31" d="M240.91,231.62v0l0,0,0,.05,0,0,.06.13s0,0,0,0a0,0,0,0,1,0,0v0l-.07-.14,0,0,0,0-.06-.07h0Z"/><path class="cls-31" d="M240.51,232.15s0,0,0,.06l0,0,0,0h0l0,0a.08.08,0,0,1,0,0l.08.07a0,0,0,0,0,.07,0s0-.06,0-.07l-.11-.1,0,0,0,0,0,0,0,0h0a0,0,0,0,0-.05,0Z"/><path class="cls-31" d="M242.82,233.68h0l0,0Z"/><path class="cls-31" d="M243.21,233.18a.43.43,0,0,0,0-.11V233a.08.08,0,0,0,0,0h0s0,0,0,0l0-.06-.06,0h0l-.06,0-.1,0-.12,0h-.22l-.09,0-.11,0-.09.06a.16.16,0,0,0-.08.06.75.75,0,0,0-.16.15l-.15.16h0l-.08.06v0a1.84,1.84,0,0,0,0-.4,1.27,1.27,0,0,0,0-.2s0-.08,0-.11l0-.11a.69.69,0,0,0,0-.1l-.05-.08a.1.1,0,0,0,0-.05s0,0-.07-.06l0,0-.07,0-.07,0h-.08l-.07,0-.06.05a.1.1,0,0,0,0,0l0,0a.93.93,0,0,0,0,.1l-.06.19a3.12,3.12,0,0,0-.06.41v.2l0,.2a1.36,1.36,0,0,1,0,.2l0,.19c0,.07,0,.13,0,.19v.15a.41.41,0,0,0,0,.11.57.57,0,0,0,0,.22v0a.16.16,0,0,0,0,.07l.06,0h.12l0,0,.08-.05.09,0,.19-.11.36-.19.37-.19a3.39,3.39,0,0,0,.34-.23l.15-.13.07-.08.07-.09Z"/><path class="cls-31" d="M241.34,232.32s0,0,0,0a0,0,0,0,0,0,0,0,0,0,0,0,0,0s0,0,0,0Z"/><path class="cls-31" d="M241.25,232.49l0,0a0,0,0,0,0,0,0s0,0,0,0,0,0,0,0Z"/><path class="cls-31" d="M241.2,232.68h0a0,0,0,0,0,0,0s0,0,0,0Z"/><path class="cls-31" d="M241.2,232.85a0,0,0,0,0,0,0l0,0,0,0a0,0,0,0,0,0,0Z"/><path class="cls-31" d="M213,231.59a1.89,1.89,0,0,0-.11-.25,1.19,1.19,0,0,0-.4-.46.8.8,0,0,0-.25-.11.81.81,0,0,0-.31,0l-.13,0a1.88,1.88,0,0,0-.52.29,2.64,2.64,0,0,0-.39.36,3.68,3.68,0,0,0-.34.44c-.11.18-.21.36-.31.54a3.31,3.31,0,0,0-.3.92c0,.2-.06.39-.08.58a3.09,3.09,0,0,0,0,.43c-.05-.08-.09-.17-.14-.26a4.43,4.43,0,0,0-.76-.92,1.75,1.75,0,0,0-.47-.35,1.54,1.54,0,0,0-.5-.16,1.51,1.51,0,0,0-.3,0,.89.89,0,0,0-.28.07.76.76,0,0,0-.31.33,1.92,1.92,0,0,0-.16.58,2.08,2.08,0,0,0,0,.61,2,2,0,0,0,.06.34,1.66,1.66,0,0,0,.27.59,1.74,1.74,0,0,0,.25.29l.21.17.45.32c.31.22.63.43.95.64l.55.37.19.18.26.22h0a6.85,6.85,0,0,1,.58.83l.11.19,0,0,.08.09s.12.08.17.05l.06,0a.33.33,0,0,0,.07-.21.48.48,0,0,0,0-.17c0-.07,0-.14-.05-.21s0-.06,0-.08a1.94,1.94,0,0,1,0-.24,5.68,5.68,0,0,1,.34-1c.15-.34.32-.67.48-1l.45-1c.08-.18.15-.36.22-.54s.13-.37.19-.56a4.65,4.65,0,0,0,.22-1.17,2.17,2.17,0,0,0,0-.36,1.47,1.47,0,0,0-.05-.29Z"/><path class="cls-31" d="M212.1,231.83a.1.1,0,0,1,.06.12.1.1,0,0,1-.12.06.1.1,0,0,1-.06-.12.09.09,0,0,1,.12-.06Z"/><path class="cls-31" d="M212.2,232.35a.07.07,0,0,1,0,.08.05.05,0,0,1-.08,0,.07.07,0,0,1,0-.08.07.07,0,0,1,.09,0Z"/><path class="cls-31" d="M212.19,232.92a0,0,0,0,1,0,.06.06.06,0,0,1-.06,0,.07.07,0,0,1,0-.06,0,0,0,0,1,.06,0Z"/><path class="cls-31" d="M212,233.39a.06.06,0,0,1,0,.07.05.05,0,0,1-.1,0s0,0,.06,0Z"/><path class="cls-56" d="M245.51,240a42.41,42.41,0,0,1-4.69,5.31,23,23,0,0,1-12.27,7.16l-.42.07c-.29,0-.55.12-.83.16s-.37,0-.55,0a3.54,3.54,0,0,0-.47,0c-.37,0-.74,0-1.11,0a10.41,10.41,0,0,1-1.08-.11l-.47-.06c-.18,0-.37,0-.56-.08s-.53-.15-.79-.23l-.42-.11A23,23,0,0,1,210.23,244a40.59,40.59,0,0,1-3.35-4.33c7.34,1.92,27.4,5.64,36.58-8.85a2.47,2.47,0,0,1,.36.19,2.64,2.64,0,0,1,.41.32,3.38,3.38,0,0,1,.55.64,3.89,3.89,0,0,1,.66,2.17Z"/><path class="cls-2" d="M395.26,206.44V223a9.2,9.2,0,0,1-18.38,0V206.44a8.54,8.54,0,0,1,3.37-6.73,9.55,9.55,0,0,1,5.82-2,9.42,9.42,0,0,1,6.49,2.55A8.4,8.4,0,0,1,395.26,206.44Z"/><path class="cls-66" d="M395.26,206.44v14a9.49,9.49,0,0,1-5.82,2,9,9,0,0,1-9.19-8.69v-14a9.55,9.55,0,0,1,5.82-2,9.42,9.42,0,0,1,6.49,2.55A8.4,8.4,0,0,1,395.26,206.44Z"/><path class="cls-2" d="M420.77,181.88c-1.68,6.15-6.41,8-10.82,9l-.16,0a38.39,38.39,0,0,1-2.07,3.45c-.46.71-1,1.4-1.47,2.08a45.86,45.86,0,0,1-5.1,5.75,24.83,24.83,0,0,1-13.3,7.77l-.46.08c-.31,0-.59.13-.9.17s-.4,0-.6,0l-.51,0c-.4,0-.8,0-1.2,0a9.62,9.62,0,0,1-1.17-.11c-.17,0-.34-.05-.51-.06s-.4,0-.61-.09-.57-.16-.86-.25l-.45-.12a24.86,24.86,0,0,1-12.6-8.85,42.38,42.38,0,0,1-3.63-4.68,4.13,4.13,0,0,1-.31-.46c-.55-.8-1.06-1.63-1.53-2.46a41.64,41.64,0,0,1-2.21-4.37c-.14,0-.3-.09-.45-.15-4.2-1.43-8.6-3.67-9.73-9.8-.93-5,.69-11.48,4.84-11.67a6.22,6.22,0,0,1,3.09.83,8.47,8.47,0,0,1,.87.5l0-.12a54.24,54.24,0,0,1,12.48-22.56,18.31,18.31,0,0,1,7.93-5.83,13.07,13.07,0,0,1,4.68-1.18,30.07,30.07,0,0,1,3.15,0,27.83,27.83,0,0,1,3.14.24,13.68,13.68,0,0,1,4.56,1.57,18.26,18.26,0,0,1,7.41,6.48,54.51,54.51,0,0,1,10.32,22.3h0c.09.45.18.9.26,1.34l.28-.15h0a6.78,6.78,0,0,1,3.76-.84C421.05,170.38,422.12,177,420.77,181.88Z"/><path class="cls-54" d="M358,168.37c1.6,7.52,3.31,15.35,8,21.64.34.46,1.11,0,.77-.46-4.63-6.24-6.31-14-7.89-21.43-.12-.56-1-.31-.86.25Z"/><path class="cls-54" d="M412.61,169.5c-2.32,7.21-4.78,14.71-10,20.4-.39.43.25,1,.64.63,5.33-5.82,7.85-13.44,10.23-20.8.18-.55-.69-.78-.87-.23Z"/><path class="cls-53" d="M354.26,174A9.59,9.59,0,0,1,360,185.22a.45.45,0,0,1-.86-.24,8.64,8.64,0,0,0,.26-2.25h0c-1-1.27-2.95-1-4.39-1.4a.45.45,0,0,1,.24-.86c1.32.34,2.89.27,4.06,1a8.63,8.63,0,0,0-5.25-6.63C353.49,174.63,353.72,173.76,354.26,174Z"/><path class="cls-53" d="M416,175.58a9.6,9.6,0,0,0-5.73,11.25.45.45,0,0,0,.86-.24,8.69,8.69,0,0,1-.26-2.25l0,0c1-1.26,2.95-1,4.39-1.39a.45.45,0,0,0-.24-.86c-1.32.33-2.89.26-4.06,1a8.63,8.63,0,0,1,5.25-6.62C416.79,176.23,416.56,175.37,416,175.58Z"/><path class="cls-54" d="M371.83,172.11h0a.78.78,0,0,0-.23,0,8.83,8.83,0,0,1,6.7-5.16,2.58,2.58,0,0,1,1.38.1,1.11,1.11,0,0,1,.72,1.08c-.06.51-.55.85-1,1.05a13.11,13.11,0,0,1-3.11.77,9.49,9.49,0,0,0-3.05.94A4,4,0,0,0,371.83,172.11Z"/><path class="cls-54" d="M395.14,167a2.59,2.59,0,0,1,1.38,0,8.76,8.76,0,0,1,6.43,6,4.19,4.19,0,0,0-.89-1.12l-.07-.05a4,4,0,0,0-.67-.56,9.47,9.47,0,0,0-3-1.15,13.41,13.41,0,0,1-3-1c-.45-.24-.93-.61-1-1.13A1.14,1.14,0,0,1,395.14,167Z"/><path class="cls-54" d="M375.78,176.92c0,1.54.88,2.81,1.94,2.82s1.91-1.23,1.9-2.78-.88-2.81-1.95-2.82S375.76,175.37,375.78,176.92Z"/><path class="cls-54" d="M394.85,177.93c0,1.54.88,2.81,1.94,2.82s1.91-1.23,1.9-2.78-.89-2.81-1.95-2.82S394.83,176.38,394.85,177.93Z"/><path class="cls-53" d="M391.52,186.71c-.8-4.26-1.74-8.49-2.61-12.73-.16-.77-1.4-.68-1.24.1q1.06,5.19,2.14,10.38c.28,1.37,1.11,3.46.32,4.77s-2.68,1.37-4,.66c-.7-.39-1.24.73-.54,1.11a4.35,4.35,0,0,0,4.51,0C391.6,190,391.83,188.35,391.52,186.71Z"/><path class="cls-64" d="M378.59,191.45A11.48,11.48,0,0,0,389,194.27c1.05-.25,1.38,1.39.33,1.64a13.14,13.14,0,0,1-12-3.36C376.55,191.8,377.82,190.71,378.59,191.45Z"/><path class="cls-54" d="M407.72,194.4c-.46.71-1,1.4-1.47,2.08a45.86,45.86,0,0,1-5.1,5.75,24.83,24.83,0,0,1-13.3,7.77l-.46.08c-.31,0-.59.13-.9.17s-.4,0-.6,0l-.51,0c-.4,0-.8,0-1.2,0a9.62,9.62,0,0,1-1.17-.11c-.17,0-.34-.05-.51-.06s-.4,0-.61-.09-.57-.16-.86-.25l-.45-.12a24.86,24.86,0,0,1-12.6-8.85,42.38,42.38,0,0,1-3.63-4.68,4.13,4.13,0,0,1-.31-.46c-.55-.8-1.06-1.63-1.53-2.46l-.06-4.69a3.7,3.7,0,0,1,1-2.61,3.39,3.39,0,0,1,.71-.58,3.55,3.55,0,0,1,1.13-.47c12.38-3,25.55-2.64,39.21-.37a3.72,3.72,0,0,1,1.59.68,2.74,2.74,0,0,1,.65.62,3.65,3.65,0,0,1,.87,2.34Z"/><path class="cls-31" d="M406.24,196.49a45.6,45.6,0,0,1-5.09,5.74l-.11.11a27.15,27.15,0,0,1-6.17,5,23.29,23.29,0,0,1-7,2.68l-.46.08c-.31,0-.59.13-.9.17s-.38,0-.57,0h0l-.51,0h-1.19c-.39,0-.78-.07-1.18-.12-.17,0-.34-.05-.51-.06s-.4-.05-.61-.09-.57-.16-.86-.25l-.45-.13a22.53,22.53,0,0,1-2.31-.81,25.7,25.7,0,0,1-10.3-8c-.67-.75-1.31-1.53-1.94-2.34s-1.14-1.54-1.68-2.34a5.31,5.31,0,0,1-.31-.46l-.05-4.38v-.82a4.19,4.19,0,0,1,.7-2.44,3.55,3.55,0,0,1,.62-.71,2.1,2.1,0,0,1,.33-.26,3.13,3.13,0,0,1,1-.48c1.41-.39,2.82-.71,4.24-1,.5-.1,1-.2,1.5-.28l.6-.11,2.32-.34c2.33-.28,4.67-.45,7.05-.51H383c.23,0,.47,0,.7,0,.82,0,1.64,0,2.47,0h0c1.21,0,2.44.09,3.65.17l.4,0,1,.08c1.62.12,3.22.29,4.86.5l.95.12.71.1c1.18.18,2.36.36,3.55.59.64.11,1.28.21,1.93.34a2.69,2.69,0,0,1,.77.26l0,0a3,3,0,0,1,.8.54,3.52,3.52,0,0,1,.59.68A4.27,4.27,0,0,1,406,189a3.2,3.2,0,0,1,.13.63,3.87,3.87,0,0,1,0,.48Z"/><path class="cls-60" d="M389.46,191.11c.19,1.16-1,2.19-2.15,2.35a9.31,9.31,0,0,1-3.48-.56,4.35,4.35,0,0,0-3.44.2c-.9.58-1.33,1.65-2.14,2.35a4.74,4.74,0,0,1-2.94,1,5,5,0,0,1-2.42-.42,2.57,2.57,0,0,1-1.44-1.89,5.54,5.54,0,0,1,.83-2.72c.39-.89.55-2.06-.17-2.7a2.21,2.21,0,0,0-2-.29,8.41,8.41,0,0,1-2,.41,2.91,2.91,0,0,1-2.47-1.76,3.13,3.13,0,0,1,1-.48c1.41-.39,2.82-.71,4.24-1,.5-.1,1-.2,1.5-.28l.6-.11,2.32-.34c2.33-.28,4.67-.45,7.05-.51H383c.23,0,.47,0,.7,0,.82,0,1.64,0,2.47,0h0c1.21,0,2.44.09,3.65.17l-.73.85a3.63,3.63,0,0,0-1,3.32C388.42,189.57,389.31,190.2,389.46,191.11Z"/><path class="cls-60" d="M406.24,196.49a45.6,45.6,0,0,1-5.09,5.74l-.11.11a8.07,8.07,0,0,1-2.76-.32,4,4,0,0,1-1.58-.85,2,2,0,0,1-.68-1.61c.07-.87.84-1.71.51-2.51s-1.21-.88-2-.9-1.67-.13-2-.81a1.38,1.38,0,0,1,0-1.22,2.77,2.77,0,0,1,.84-.93,4.93,4.93,0,0,1,2.26-.92c.65-.1,1.31-.07,1.95-.15a2.86,2.86,0,0,0,1.77-.74,1.45,1.45,0,0,0,.23-1.78c-.31-.41-.92-.64-1-1.15s.4-.9.86-1.14a8.3,8.3,0,0,1,4.62-.74,3,3,0,0,1,.8.54,3.52,3.52,0,0,1,.59.68A4.27,4.27,0,0,1,406,189a3.2,3.2,0,0,1,.13.63,3.87,3.87,0,0,1,0,.48Z"/><path class="cls-55" d="M382.71,202.14a4.05,4.05,0,0,1-2.08,1.58l-2.3,1.06c-.51.23-1.09.52-1.25,1.07a1.58,1.58,0,0,0,.3,1.33,7.49,7.49,0,0,1,.76,1.19,1.76,1.76,0,0,1,.13.5,25.7,25.7,0,0,1-10.3-8c-.67-.75-1.31-1.53-1.94-2.34a7.65,7.65,0,0,1,3.51-1.5,3.19,3.19,0,0,1,3,.85c.39.48.54,1.13.94,1.61a2.58,2.58,0,0,0,2.37.7,11,11,0,0,0,2.45-.85,4.78,4.78,0,0,1,2.51-.47,2.59,2.59,0,0,1,1.81,1.18A2.19,2.19,0,0,1,382.71,202.14Z"/><path class="cls-55" d="M394.77,205.61a1.49,1.49,0,0,0-.13,1.41,1.14,1.14,0,0,0,.23.3,23.29,23.29,0,0,1-7,2.68l-.46.08c-.31,0-.59.13-.9.17s-.38,0-.57,0a1.93,1.93,0,0,0-.27-.56c-.66-1-2.22-.86-2.95-1.76a2.19,2.19,0,0,1,.17-2.63,8.14,8.14,0,0,1,2.21-1.76,4.43,4.43,0,0,0,1.89-2,2.77,2.77,0,0,0-.37-2.49,3.63,3.63,0,0,0-2.11-1.44c-.39-.11-.91-.28-.88-.68a.74.74,0,0,1,.46-.56,7.58,7.58,0,0,1,5.82-.74c.73.2,1.53.65,1.61,1.4a10,10,0,0,1-.21,1.41,1.4,1.4,0,0,0,.12.58,2,2,0,0,0,1.69,1.16,7.23,7.23,0,0,1,.81.15,3,3,0,0,1,2.14,2,2.74,2.74,0,0,1-.42,2.14C395.36,204.84,395,205.19,394.77,205.61Z"/><path class="cls-56" d="M406.25,196.48a45.86,45.86,0,0,1-5.1,5.75,24.83,24.83,0,0,1-13.3,7.77l-.46.08c-.31,0-.59.13-.9.17s-.4,0-.6,0l-.51,0c-.4,0-.8,0-1.2,0a9.62,9.62,0,0,1-1.17-.11c-.17,0-.34-.05-.51-.06s-.4,0-.61-.09-.57-.16-.86-.25l-.45-.12a24.86,24.86,0,0,1-12.6-8.85,42.38,42.38,0,0,1-3.63-4.68c8,2.07,29.71,6.11,39.67-9.61a2.1,2.1,0,0,1,.39.21,3,3,0,0,1,.45.35,3.58,3.58,0,0,1,.59.69,4.35,4.35,0,0,1,.72,2.35Z"/><path class="cls-67" d="M414.53,147.71a19.16,19.16,0,0,0-4-8.74,11.89,11.89,0,0,0-8.41-4.28c.1-1.66-1.58-3-3.24-3.14a9.74,9.74,0,0,0-4.78,1.24,2.61,2.61,0,0,0-3.59-3.74c-.08-1.75-1.83-3.08-3.57-3.23a8.66,8.66,0,0,0-5,1.48,25.21,25.21,0,0,1-4.63,2.48c-2.27.74-4.76.5-7,1.21-3.47,1.09-5.88,4.16-8.07,7.06-3.46,4.61-7,9.5-7.74,15.22l2.88-3.85a16.68,16.68,0,0,1-3.65,9.5A6.49,6.49,0,0,0,357,157.4a9.47,9.47,0,0,0,2.6,12.32,35.23,35.23,0,0,0,2.15,12.82.2.2,0,0,0,.39-.09,40,40,0,0,1-.38-8.32,18,18,0,0,1,1.51-6,8,8,0,0,0,4-.61l-1.18,1.86a27.76,27.76,0,0,0,13.3-12.2c.58,4.09-4.38,8.45-4.38,8.45,5.32-2.53,6.62-3.93,9.65-9,.22,5.66-4.69,11.61-4.69,11.61,9.81-3.34,14.56-11.56,16.35-16.92a19.39,19.39,0,0,1,9.19,16.91,15.64,15.64,0,0,0-.06-8.26,42,42,0,0,1,3.64,22.51.18.18,0,0,0,.36.06q1.26-4.84,2.53-9.68C414.09,164.64,416.25,156,414.53,147.71Z"/><g class="cls-68"><g class="cls-13"><path class="cls-15" d="M391.06,136.43a10.55,10.55,0,0,1,3.18,3.85,12.58,12.58,0,0,1,1.34,4.93,12.72,12.72,0,0,1-.72,5,10.63,10.63,0,0,1-2.68,4.21,25.8,25.8,0,0,0,1.34-4.58,19.05,19.05,0,0,0,.28-4.57,18.49,18.49,0,0,0-.84-4.51A25.25,25.25,0,0,0,391.06,136.43Z"/></g><g class="cls-13"><path class="cls-15" d="M388.93,138.27a13.14,13.14,0,0,1,.24,4.51,17.21,17.21,0,0,1-1.1,4.4,17,17,0,0,1-2.23,4,12.89,12.89,0,0,1-3.27,3.11c.73-1.32,1.44-2.57,2.09-3.85s1.22-2.57,1.75-3.88,1-2.64,1.4-4S388.55,139.74,388.93,138.27Z"/></g><g class="cls-13"><path class="cls-15" d="M383.47,139.88a25.34,25.34,0,0,1-1.58,5.93,33.17,33.17,0,0,1-6.47,10.4,25.32,25.32,0,0,1-4.63,4l3.55-4.89c1.14-1.64,2.25-3.28,3.29-5s2-3.4,3-5.14Z"/></g><g class="cls-13"><path class="cls-15" d="M383.17,135.65c-2.68,1.84-5.37,3.6-7.91,5.51a50.08,50.08,0,0,0-7.06,6.32,31.61,31.61,0,0,0-5.25,7.75,25.23,25.23,0,0,0-2.39,9.16,18.77,18.77,0,0,1,1.11-9.7,26.47,26.47,0,0,1,5.21-8.41,36.94,36.94,0,0,1,7.59-6.26A51.31,51.31,0,0,1,383.17,135.65Z"/></g><g class="cls-13"><path class="cls-15" d="M396.88,139.38a10.55,10.55,0,0,1,4,1.91,13.48,13.48,0,0,1,3.05,3.25,13.25,13.25,0,0,1,1.82,4.06A10.34,10.34,0,0,1,406,153a41.22,41.22,0,0,0-1.55-3.93,26.54,26.54,0,0,0-2-3.53,25.62,25.62,0,0,0-2.5-3.21C399,141.31,398,140.36,396.88,139.38Z"/></g><g class="cls-13"><path class="cls-15" d="M403.57,138.84a12.61,12.61,0,0,1,6.4,4.45,18.28,18.28,0,0,1,3.42,7.18,25.65,25.65,0,0,1,.47,7.85,35.65,35.65,0,0,1-1.52,7.61c0-2.59.17-5.13.13-7.65a35.72,35.72,0,0,0-.82-7.41,21.5,21.5,0,0,0-2.81-6.77A16.55,16.55,0,0,0,403.57,138.84Z"/></g><g class="cls-13"><path class="cls-15" d="M376.17,129.38a16.55,16.55,0,0,1,2.57-.49q1.25-.15,2.49-.21t2.49,0a16.08,16.08,0,0,1,2.61.25A7.93,7.93,0,0,1,383.9,130a11.3,11.3,0,0,1-2.59.42,10.94,10.94,0,0,1-2.62-.18A7.85,7.85,0,0,1,376.17,129.38Z"/></g><g class="cls-13"><path class="cls-15" d="M379.93,132.3a29,29,0,0,0-6.11,2.27,23.36,23.36,0,0,0-5.22,3.61,24.1,24.1,0,0,0-4.07,4.86,30.4,30.4,0,0,0-2.83,5.88,15.73,15.73,0,0,1,1.61-6.55,17.87,17.87,0,0,1,9.95-9.07A15.62,15.62,0,0,1,379.93,132.3Z"/></g><g class="cls-13"><path class="cls-15" d="M372.35,149.75a34,34,0,0,1-2,2.93c-.69.93-1.38,1.84-2.1,2.73s-1.44,1.77-2.18,2.65a29.06,29.06,0,0,1-2.42,2.58,13.07,13.07,0,0,1,1.26-3.36,18.41,18.41,0,0,1,1.95-3,19.35,19.35,0,0,1,2.47-2.57A13.57,13.57,0,0,1,372.35,149.75Z"/></g></g><path class="cls-69" d="M411.8,194.1H394.42v-2.37H411.8c10.15,0,15-16.74,15-16.91l2.49.59C429.11,176.18,423.92,194.1,411.8,194.1Z"/><path class="cls-69" d="M402.61,193.49a3.59,3.59,0,0,1-3.72,3.43H390a3.59,3.59,0,0,1-3.73-3.43v-1.15a3.59,3.59,0,0,1,3.73-3.43h8.93a3.58,3.58,0,0,1,3.72,3.43Z"/><path class="cls-69" d="M358,159.11a2.38,2.38,0,0,1-2.47,2.28H354a2.38,2.38,0,0,1-2.47-2.28v-1.37a2.38,2.38,0,0,1,2.47-2.28h1.49a2.38,2.38,0,0,1,2.47,2.28Z"/><path class="cls-70" d="M341.73,172.19c0,7.24,6.32,13.11,14.14,13.17V159C348.05,159.09,341.73,165,341.73,172.19Z"/><path class="cls-71" d="M361.29,184.07a2.92,2.92,0,0,1-3,2.8h0a2.92,2.92,0,0,1-3-2.8V160.31a2.92,2.92,0,0,1,3-2.8h0a2.92,2.92,0,0,1,3,2.8Z"/><path class="cls-69" d="M418.35,157.87h-3.3c0-14.76-13.15-26.77-29.32-26.77s-29.31,12-29.31,26.77h-3.31c0-16.44,14.64-29.82,32.62-29.82S418.35,141.43,418.35,157.87Z"/><path class="cls-69" d="M413.47,159.11a2.38,2.38,0,0,0,2.47,2.28h1.48a2.38,2.38,0,0,0,2.47-2.28v-1.37a2.38,2.38,0,0,0-2.47-2.28h-1.48a2.38,2.38,0,0,0-2.47,2.28Z"/><path class="cls-70" d="M429.72,172.19c0,7.24-6.32,13.11-14.14,13.17V159C423.4,159.09,429.72,165,429.72,172.19Z"/><path class="cls-71" d="M410.15,184.07a2.92,2.92,0,0,0,3,2.8h0a2.92,2.92,0,0,0,3-2.8V160.31a2.92,2.92,0,0,0-3-2.8h0a2.92,2.92,0,0,0-3,2.8Z"/><path class="cls-69" d="M364.64,140.89a4.17,4.17,0,0,1-3-1.21,3.52,3.52,0,0,1,.23-5.26,37.42,37.42,0,0,1,47.66,0,3.52,3.52,0,0,1,.24,5.26,4.28,4.28,0,0,1-5.71.22,28.82,28.82,0,0,0-36.71,0A4.24,4.24,0,0,1,364.64,140.89Z"/><path class="cls-67" d="M373.49,121.07s15.79,4,16.38,14.58-9.94-1.23-9.94-1.23S379.93,126.08,373.49,121.07Z"/><g class="cls-72"><path class="cls-15" d="M379.93,126.15a8,8,0,0,1,3.17,2,9.5,9.5,0,0,1,2.76,7,8,8,0,0,1-.94,3.64,18.52,18.52,0,0,0-.11-3.59,13.94,13.94,0,0,0-.86-3.33,14.59,14.59,0,0,0-1.64-3A19.2,19.2,0,0,0,379.93,126.15Z"/></g><path class="cls-73" d="M392.66,171.48H405a2.39,2.39,0,0,1,2.39,2.39v1.68a7.28,7.28,0,0,1-7.28,7.28h-2.53a7.28,7.28,0,0,1-7.28-7.28v-1.68a2.39,2.39,0,0,1,2.39-2.39Z"/><path class="cls-73" d="M371.67,171.48H384a2.39,2.39,0,0,1,2.39,2.39v1.68a7.28,7.28,0,0,1-7.28,7.28h-2.53a7.28,7.28,0,0,1-7.28-7.28v-1.68a2.39,2.39,0,0,1,2.39-2.39Z"/><path class="cls-54" d="M386.65,176.21a2.3,2.3,0,0,1,1.52-.8,2.21,2.21,0,0,1,1.64.61c.39.36,1-.22.58-.58a3.05,3.05,0,0,0-2.22-.85,3.1,3.1,0,0,0-2.1,1c-.35.39.22,1,.58.58Z"/><path class="cls-54" d="M360.94,170.17a9.06,9.06,0,0,0,2.47,2.14,12.36,12.36,0,0,0,3.49,1.53,8.46,8.46,0,0,0,2.12.29.41.41,0,0,0,0-.82,9,9,0,0,1-3.39-.76,12.19,12.19,0,0,1-2.91-1.72c-.21-.18-.41-.36-.6-.55a3.83,3.83,0,0,1-.28-.29l-.11-.13-.05-.06,0,0a.42.42,0,0,0-.56-.15.4.4,0,0,0-.15.56Z"/><path class="cls-54" d="M408,174.53a19.06,19.06,0,0,0,1.82-2.09,4.52,4.52,0,0,0,.78-2.15.41.41,0,0,0-.41-.41.42.42,0,0,0-.41.41,3.67,3.67,0,0,1-.7,1.78,19.58,19.58,0,0,1-1.66,1.88c-.36.39.22,1,.58.58Z"/></g></g></g></g></svg>